/* XPM */
static char *_d40caba19ae4dd1c71116ad1c5e85ddun1mTxHBU94uYVFW[] = {
/* columns rows colors chars-per-pixel */
"50 50 140 2 ",
"   c gray9",
".  c #181818",
"X  c #191919",
"o  c gray10",
"O  c #1B1B1B",
"+  c gray11",
"@  c #1D1D1D",
"#  c #1E1E1E",
"$  c gray12",
"%  c #202020",
"&  c gray13",
"*  c #222222",
"=  c #232323",
"-  c gray14",
";  c #252525",
":  c gray15",
">  c #272727",
",  c #282828",
"<  c gray16",
"1  c #2A2A2A",
"2  c gray17",
"3  c #2C2C2C",
"4  c #2D2D2D",
"5  c gray18",
"6  c #2F2F2F",
"7  c gray19",
"8  c #313131",
"9  c #323232",
"0  c gray20",
"q  c #343434",
"w  c #353535",
"e  c gray21",
"r  c #373737",
"t  c gray22",
"y  c #393939",
"u  c #3A3A3A",
"i  c gray23",
"p  c #3C3C3C",
"a  c gray24",
"s  c #3E3E3E",
"d  c #3F3F3F",
"f  c gray25",
"g  c #414141",
"h  c gray26",
"j  c #434343",
"k  c #444444",
"l  c gray27",
"z  c #464646",
"x  c gray28",
"c  c #484848",
"v  c #494949",
"b  c gray29",
"n  c #4B4B4B",
"m  c #4C4C4C",
"M  c gray30",
"N  c #4E4E4E",
"B  c gray31",
"V  c #505050",
"C  c #515151",
"Z  c gray32",
"A  c #535353",
"S  c gray33",
"D  c #555555",
"F  c #565656",
"G  c gray34",
"H  c #585858",
"J  c gray35",
"K  c #5A5A5A",
"L  c #5B5B5B",
"P  c gray36",
"I  c #5D5D5D",
"U  c gray37",
"Y  c #5F5F5F",
"T  c #606060",
"R  c gray38",
"E  c #626262",
"W  c gray39",
"Q  c #646464",
"!  c #656565",
"~  c gray40",
"^  c #676767",
"/  c #686868",
"(  c DimGray",
")  c #6A6A6A",
"_  c gray42",
"`  c #6C6C6C",
"'  c #6D6D6D",
"]  c gray43",
"[  c #6F6F6F",
"{  c gray44",
"}  c #717171",
"|  c #727272",
" . c gray45",
".. c #747474",
"X. c gray46",
"o. c #767676",
"O. c #777777",
"+. c gray47",
"@. c #797979",
"#. c gray48",
"$. c #7B7B7B",
"%. c #7C7C7C",
"&. c gray49",
"*. c #7E7E7E",
"=. c gray50",
"-. c #808080",
";. c #818181",
":. c gray51",
">. c #838383",
",. c #848484",
"<. c gray52",
"1. c #868686",
"2. c gray53",
"3. c #888888",
"4. c #898989",
"5. c gray54",
"6. c #8B8B8B",
"7. c gray55",
"8. c #8D8D8D",
"9. c #8E8E8E",
"0. c gray56",
"q. c #909090",
"w. c gray57",
"e. c #929292",
"r. c #939393",
"t. c gray58",
"y. c #959595",
"u. c gray59",
"i. c #979797",
"p. c #989898",
"a. c gray60",
"s. c #9A9A9A",
"d. c #9B9B9B",
"f. c gray61",
"g. c #9D9D9D",
"h. c gray62",
"j. c #9F9F9F",
"k. c #A0A0A0",
"l. c gray63",
"z. c #A2A2A2",
/* pixels */
"5 5 8 5 5 8 5 8 * | q.9.| G J J G T C : 8 < < < 5 : * * ;.9.q.y.q.q.B < < a T G n < < 5 5 5 < 8 5 5 ",
"< 5 5 < : 5 < 5 # _ p.y.| B B B B G z : < < 5 5 8 *   : &.q.9.3.3.q.G 5 8 j Y G j : 5 8 < 8 5 < 5 5 ",
"5 8 < i 5 q < 8 8 T 3.q.| G T ! Y J n a 8 8 5 < < * # i | q.q.9.q.y.C * : i G J n q q 8 : < < 5 < < ",
": < 5 [ O.,.#.3.#._ _ _ n 5 8 i J G Y &.#.;.&.;.;.&.O.O.! ! Y Y G _ a # < 8 i i 5 : : : 5 8 z #.;.;.",
"8 5 5 ,.p.y.,.q.k._ C G j < 5 a J G ! y.p.y.9.y.q.p.y.9.Y G C J G Y i # * : : : 8 q < : 8 : i y.9.9.",
"5 < < &.y.q.9.y.y.! G C j 5 : q J J ! 3.q.q.3.y.9.y.q.3.T J G J J B 8 # o * < 8 < 5 < 5 q < a q.y.y.",
"5 8 : n C z J T ! J J J _ O.| &.#.;.[ B B z a a j n z z a i q i i a J | O.| O.#.Y n n z 5 * 5 B z z ",
"< q : < : * B J G G G B | p.q.y.q.p.O.< * * : # # : < < 5 < < 5 < 8 [ p.y.q.q.y.,.C Y G < < q : < < ",
"* < : : 5 * B J J Y Y C O.g.q.q.9.g.O.< 8 < * # # < < : : : : < < 5 T y.y.9.y.y.&.G J C 5 : < < 5 5 ",
"[ _ O._ [ _ C a a i i 8 n J C J [ [ T a j n T ! T [ [ _ [ [ _ _ _ T [ O.[ _ _ ! G q a j a z j 8 5 5 ",
"y.3.g.q.y.g.n * < * # # : : : i J n T T J _ y.y.9.y.q.9.y.y.q.q.y.9.| G B G G C z : 5 j G ! C 5 5 5 ",
"p.9.p.y.9.y.j * < * # # * : < i ! C J Y B ! q.g.q.p.y.9.q.y.y.p.y.y.| C G Y J T n : : i G T j < : : ",
"T T Y | [ | Y Y J J G G J Y T G j z z j j B G Y Y [ O.[ | | | | | O.T C J B a n j 5 < q j j z T T T ",
"# < : n G G ;.g.y.g.p.y.p.g.y.| o 8 < < 5 8 * : 5 n G G G G C C G Y G G J a : 5 5 5 5 5 < * j q.q.q.",
"5 8 5 B J C ;.p.y.y.9.q.q.y.y._ < 8 : : * 5 < 8 i C Y J J Y J J C J G J Y z 5 8 * < 5 : < * a 3.q.q.",
"a i a B T C | &.O.| ! [ [ O.;.Y : 8 a G B B a i i n n j j n n n z z j j z i < < q a a j G C C ;.#.#.",
"J J G C G Y J B J q * < a G J z 8 < z g.p.3.Y G T 5 * 8 < 5 8 # # * * # # 5 8 < j T B ! y.g.3.J C C ",
"Y T Y J C G G J Y j < : i G G a : * j q.g.,.G J C 8 < < < : : * # # o o # : < 5 q J G [ y.y.,.G J J ",
"a z n T J J B C j B n z J [ [ Y j z J [ ;.| z B z q 5 : n z z z a a i a z i 5 i j J G ! O.#.#.J G G ",
"q 5 : n B C q 5 8 | q.9.9.q.9.3.p.y.| * < 8 : 8 5 : # : ;.q.y.9.q.y.q.y.p.O.G Y G Y G G G J ! C J J ",
"5 < 5 C T T a < # _ p.p.y.y.q.y.3.y.;.< 5 5 : * 5 * o * ;.y.y.9.q.y.q.q.y.[ B C G G G J G B G B C G ",
"q a z n B z a 8 i ! ;.;.&.#.&.;.,.&.! 8 < < j n i q q i | &.3.,.,.3.&.#.#.[ T ! G C G J J G J ! T T ",
"y.q.;.j 5 5 C J C G Y G j 8 5 < # * : 8 5 j ,.3.y.9.9.;._ J Y J G C j 5 8 j B B J J G C G G T 3.9.q.",
"3.q.9.a < : C G J C J J j 5 < : * : * 5 o a p.q.q.3.y.q.T B J G J G j : : z Y J G J G C G C T q.q.q.",
"q.3.3.a 5 < n G C G G C z q 5 8 : # * q 5 n 3.9.q.3.9.3._ Y J G Y G i 8 5 i Y C B T Y Y T G ! ;.3.3.",
"C G ! G G G j 8 8 8 < 8 Y q.9.! # 5 B y.3.O.! C J C Y T #.;.3.[ C J i < 5 8 q < J 9.,.,.3.;.,.! J J ",
"T G C G J Y q o * 8 5 : C y.p._ < 5 i q.q.&.J J T C J C 3.p.y.Y G ! a * 5 5 < * n p.y.q.y.q.9.n J J ",
"G C G J Y C j 8 5 8 < 5 T p.y.[ : 8 n ,.p.,.J G G B G C ;.y.q.! B C a 8 8 5 5 < Y q.q.9.9.9.9.Y G G ",
"J G G 8 8 5 ! ,.,.T n B Y ! T Y ,.;._ j z i 8 5 q i i q a j i 8 q q Y ,.;.;.3.,._ Y T Y Y Y J G J J ",
"C J Y 8 5 : | p.p.[ G Y J n G &.q.9.O.* : : 8 5 : 5 5 5 < : : 8 8 : _ k.y.9.y.q.;.C B G Y Y C T G G ",
"J Y B 5 < 8 O.y.9._ C J T G G ! g.y.&.8 < 5 8 < 5 8 5 : 8 < : < < : T 9.9.9.q.g.#.G G G C G G G J J ",
"C T G C n z B j n C Y G z q q j j j j < : 8 : * < : 5 5 [ | #.| O.[ 9.p.9.#.Y ! J T J B q q z 8 i i ",
"J J G Y J J q * < n C G z 5 8 < < : 5 : 5 5 o < * 5 8 < 3.p.q.q.q.y.3.3.y.| B J C G G z < q : 8 < < ",
"G G G J G G a 5 * z J J a * < 5 5 5 5 5 : < # o # : 5 q &.q.q.y.p.p.q.y.y.| C G J J Y n 8 5 # < < < ",
"i i a a j a z n z C G J z 5 8 i 8 8 a [ T _ ! Y ! T ! T J C C G B C Y [ [ Y G J z i j j z z z B z z ",
"# # * # < < n J J J G G z 5 : < 5 : a k.p.q.p.p.p.p.p.9.j # : < : < j J J G J G n < < 8 G J Y J J J ",
"# # # * 5 : n G C G Y J j : # < 5 : i p.q.9.q.q.9.q.y.q.j : 5 < 8 8 n Y G G Y J n 5 : q J J J B J J ",
"i a a G T G [ [ | Y J G G J J T J T Y O.[ | ! J T | [ O.n j z 8 : : i z a j z j i a a n J G G j j j ",
"J T J 3.p.q.p.y.p.[ G C O.p.y.y.9.g.;.J C B : # 5 G B J G J Y a 5 5 8 8 < < < : j Y J Y J G n 5 < < ",
"C G n ;.q.q.y.3.y.[ J G O.g.q.9.9.p.;.B Y G : 8 : Y G C G G G q : < < < < 5 5 5 a Y G J G T C 5 5 5 ",
"! [ | 3.9.q.;.#.#.T C J [ &.&.O.O.;.! Y J C i a j T [ ! [ O.! B q a i a j q 5 < q B n z B z a 8 < < ",
"y.y.9.p.q.3.! B Y J G C C C C C B Y C C C Y G J Y y.p.y.q.q.9.T J Y Y Y Y j < 8 : 5 < 5 < < 8 < 5 5 ",
"q.q.3.y.q.q._ B C J Y J J J Y Y Y J G Y C G G G C 9.9.q.q.q.p._ B G C G Y a : 8 8 8 < 5 * * 5 * < < ",
";.,.;.,.;.,.[ J Y B z n B B n n B j B [ T T T ! | ;.&.&.O.| O.Y J Y B n C a < q 5 q 8 a n n n n z z ",
"G J G G n G B B Y q # * 5 5 < 5 i < B y.y.q.9.q.;.Y J C q 5 5 z G J a < 8 8 : < j Y G _ y.q.3.q.y.y.",
"G J G J C Y Y T J q o # : : < 8 : # n y.p.y.9.9.q.G Y C 5 : : G Y J j : : 8 8 < q J C T q.p.q.p.9.9.",
"C B n Y J J n n C a < : 5 q q 8 8 8 n #.#.;.,.9.3.C C B i i q z C n j q < q j q n T T _ #.,.3.#.;.;.",
"5 < 5 C J G i 8 5 5 : < j J J z : 5 5 8 : i B J G 8 : i n J J i 5 5 z J Y | 9.9.9.9.9.;.Y J G < 5 5 ",
"5 5 5 C J G i < 5 5 < 5 j J J n < 5 5 5 < q G J C 8 5 < G G J i < < n J G | y.9.9.9.q.;.C J C 5 5 5 ",
"5 5 5 C J G i < 5 5 < 5 j J J n < 5 5 5 < q G J C 8 5 < G G J i < < n J G | y.9.9.9.q.;.C J C 5 5 5 "
};
