/* XPM */
static char *result[] = {
/* columns rows colors chars-per-pixel */
"25 25 173 2 ",
"   c #160005",
".  c #180005",
"X  c #220007",
"o  c #2C0009",
"O  c #39010D",
"+  c #212208",
"@  c #262202",
"#  c #303003",
"$  c #383B0A",
"%  c #3F2812",
"&  c #373312",
"*  c #42040E",
"=  c #4D040E",
"-  c #480410",
";  c #520313",
":  c #580516",
">  c #531115",
",  c #630415",
"<  c #6C0317",
"1  c #6E0018",
"2  c #6B081B",
"3  c #740716",
"4  c #760917",
"5  c #72021A",
"6  c #7A021B",
"7  c #423C00",
"8  c #4B3B04",
"9  c #4D2918",
"0  c #4E3116",
"q  c #513F17",
"w  c #583719",
"e  c #454201",
"r  c #4A4405",
"t  c #414B00",
"y  c #4B4109",
"u  c #514C0C",
"i  c #55500E",
"p  c #575A0F",
"a  c #424611",
"s  c #5D5F13",
"d  c #5F6411",
"f  c #616C06",
"g  c #686217",
"h  c #606914",
"j  c #687216",
"k  c #72751D",
"l  c #78701D",
"z  c #6B6021",
"x  c #820E15",
"c  c #8E001E",
"v  c #841416",
"b  c #931E14",
"n  c #A0191A",
"m  c #84270C",
"M  c #8E2211",
"N  c #8E0D20",
"B  c #9E0123",
"V  c #A60024",
"C  c #AD0125",
"Z  c #A90D25",
"A  c #B30326",
"S  c #BE0B2A",
"D  c #AB1027",
"F  c #BE112D",
"G  c #C8062B",
"H  c #D3042D",
"J  c #DB062F",
"K  c #D30D31",
"L  c #DD0D32",
"P  c #C91231",
"I  c #DB1133",
"U  c #D01332",
"Y  c #E40E33",
"T  c #E51236",
"R  c #E91437",
"E  c #E11C36",
"W  c #EC153A",
"Q  c #F01435",
"!  c #C82929",
"~  c #D63E28",
"^  c #DC3D20",
"/  c #E3272E",
"(  c #E73F2B",
")  c #E93F2D",
"_  c #F1342D",
"`  c #F23E2C",
"'  c #EC2339",
"]  c #E92E34",
"[  c #F22E33",
"{  c #F2203A",
"}  c #F22435",
"|  c #EE3135",
" . c #BD580F",
".. c #B4510A",
"X. c #CA4313",
"o. c #C55214",
"O. c #EA5E1D",
"+. c #E8511C",
"@. c #EB6616",
"#. c #ED6A16",
"$. c #EE631A",
"%. c #EC6819",
"&. c #F1641A",
"*. c #F46D1C",
"=. c #F16E16",
"-. c #EF7513",
";. c #ED7219",
":. c #F27414",
">. c #F37B12",
",. c #F37118",
"<. c #DE4E24",
"1. c #ED4D26",
"2. c #EE422C",
"3. c #EF4D2A",
"4. c #F34627",
"5. c #F34A27",
"6. c #F2432A",
"7. c #F0492A",
"8. c #ED5422",
"9. c #ED5922",
"0. c #EF5428",
"q. c #F15320",
"w. c #F25B26",
"e. c #F35428",
"r. c #EA6422",
"t. c #F36321",
"y. c #937144",
"u. c #618A00",
"i. c #669000",
"p. c #6B9200",
"a. c #759600",
"s. c #799900",
"d. c #7A891E",
"f. c #9AAA00",
"g. c #A4B000",
"h. c #AEB400",
"j. c #B0B700",
"k. c #B4B900",
"l. c #BCBD00",
"z. c #858B23",
"x. c #8D912F",
"c. c #DB8F09",
"v. c #E3810D",
"b. c #F3850F",
"n. c #F48E0D",
"m. c #EB920C",
"M. c #F4940B",
"N. c #F29C0A",
"B. c #EE8510",
"V. c #F48410",
"C. c #D5BF02",
"Z. c #DDBB03",
"A. c #EEAD07",
"S. c #F4AC06",
"D. c #F3A409",
"F. c #F0AB08",
"G. c #F4A507",
"H. c #EFB104",
"J. c #E5BC01",
"K. c #E9BB02",
"L. c #EDB109",
"P. c #F3B604",
"I. c #F5BE03",
"U. c #C1C300",
"Y. c #CBC100",
"T. c #D3C400",
"R. c #DCC400",
"E. c #DACA00",
"W. c #E3C300",
"Q. c #E0C800",
"!. c #F2C101",
"~. c #999749",
"^. c None",
/* pixels */
"^.^.^.^.^.^.^.^.^.^.^.^.y.^.^.^.^.^.^.^.^.^.^.^.^.",
"^.^.h z.e ~.r r d e l r w u s ^.^.r r r ^.^.^.^.^.",
"^.r z.r z.8 r r r & @ & 0 7 ^.$ u p h r j g ^.^.^.",
"^.d.r ~.r r r d.1 ; + # % 9 k X ^.^.^.^.^.^.^.^.^.",
"^.z.z 7 r r D X     . ; 1 5 6 1 O o ^.^.^.^.^.^.^.",
"^.i x.r e > o o o X , N B V V A C V 6 - ^.^.^.^.^.",
"t i r r 2 * * O O 1 A S G H H J J J K F ^.^.^.^.^.",
"f k a ^.4 ; ; - 4 Z K L I I Y Y Y Q R I ^.^.^.^.^.",
"e ^.^.! 4 , , : D S L T T T T R W Q Q Q E ^.^.^.^.",
"^.^.^.! v 4 < N U I E W W W W W Q { [ [ _ ^.^.^.^.",
"^.^.^.~ v x 3 K ' ' ' ' ' { { { } _ 6.5.4.^.^.^.^.",
"^.^.r.<.b x b / ] ] ] ] | | | | _ ` 6.2.3.^.^.^.^.",
"^.^.;.o.M b ^ ( 2.2.2.2.2.6.` ` ) 2.0.0.w.9.^.^.^.",
"^.^.B. .m X.+.1.1.1.5.5.7.7.6.6.3.3.0.e.w.w.^.^.^.",
"^.^.H.v...@.O.O.+.9.q.q.q.5.e.5.8.8.9.w.t.*.^.^.^.",
"^.^.^.S.m.b.:.%.#.&.&.&.&.&.$.O.9.$.t.*.,.c.^.^.^.",
"^.^.^.K.I.D.n.B.:.:.:.:.,.=.=.@.@.#.:.>.M.^.^.^.^.",
"^.^.^.Z.W.!.F.N.m.B.>.>.>.>.>.:.-.>.b.M.A.^.^.^.^.",
"^.^.^.^.R.Q.W.K.L.D.M.b.b.b.b.b.b.n.M.L.Z.^.^.^.^.",
"^.^.^.^.W.R.E.R.R.J.P.G.M.M.M.M.M.N.A.Z.T.^.^.^.^.",
"^.^.^.^.^.T.T.T.R.R.R.J.P.G.D.D.D.F.Z.R.^.^.^.^.^.",
"^.^.^.^.^.^.U.Y.Y.T.R.W.!.I.P.P.L.Z.T.^.^.^.^.^.^.",
"^.^.^.^.^.^.^.f.Y.U.Y.Y.R.W.W.K.R.^.^.^.^.^.^.^.^.",
"^.^.^.^.^.^.^.^.u.h.g.j.k.l.l.f.^.^.^.^.^.^.^.^.^.",
"^.^.^.^.^.^.^.^.^.^.s.a.i.p.^.^.^.^.^.^.^.^.^.^.^."
};
