/* XPM */
static char *result[] = {
/* columns rows colors chars-per-pixel */
"45 45 164 2 ",
"   c #3C0D00",
".  c #351100",
"X  c #3B1300",
"o  c #4B0500",
"O  c #400D00",
"+  c #520100",
"@  c #5F0200",
"#  c #520A00",
"$  c #441600",
"%  c #481700",
"&  c #471900",
"*  c #4C1A00",
"=  c #541300",
"-  c #5D1300",
";  c #541F00",
":  c #5B1E00",
">  c #660000",
",  c #630E02",
"<  c #790E00",
"1  c #6F1600",
"2  c #601E00",
"3  c #611603",
"4  c #701500",
"5  c #7A1000",
"6  c #731C00",
"7  c #4E2003",
"8  c #552201",
"9  c #5A2602",
"0  c #5B2903",
"q  c #563600",
"w  c #5C3B03",
"e  c #642000",
"r  c #6C2400",
"t  c #632F05",
"y  c #752500",
"u  c #782400",
"i  c #732A01",
"p  c #7E2A00",
"a  c #594000",
"s  c #5C4C02",
"d  c #545400",
"f  c #5C5C00",
"g  c #635302",
"h  c #655D01",
"j  c #754416",
"k  c #656500",
"l  c #820B00",
"z  c #8C0800",
"x  c #960000",
"c  c #980801",
"v  c #831200",
"b  c #8B1700",
"n  c #841D00",
"m  c #8F1B01",
"M  c #901600",
"N  c #9D1000",
"B  c #9B1E00",
"V  c #A50700",
"C  c #AC0000",
"Z  c #B40400",
"A  c #BA0000",
"S  c #A41500",
"D  c #A81500",
"F  c #AD1900",
"G  c #B51200",
"H  c #BE1400",
"J  c #B31801",
"K  c #842C00",
"L  c #8A2D00",
"P  c #932100",
"I  c #942C00",
"U  c #982F00",
"Y  c #833201",
"T  c #8A3100",
"R  c #86320A",
"E  c #933500",
"W  c #9B3300",
"Q  c #943C02",
"!  c #9C3C00",
"~  c #8A3510",
"^  c #913E11",
"/  c #AB2502",
"(  c #A52B01",
")  c #A82B03",
"_  c #B12703",
"`  c #A23600",
"'  c #A53900",
"]  c #AA3C00",
"[  c #B93600",
"{  c #CD0200",
"}  c #D40700",
"|  c #C01600",
" . c #DF1E02",
".. c #E50100",
"X. c #E40A01",
"o. c #E31101",
"O. c #C32300",
"+. c #DD2700",
"@. c #DC2A03",
"#. c #C03600",
"$. c #D93C04",
"%. c #DA3303",
"&. c #964104",
"*. c #9D4203",
"=. c #904E17",
"-. c #A24600",
";. c #AC4302",
":. c #A34901",
">. c #A84E06",
",. c #A74E08",
"<. c #BB4600",
"1. c #B64B03",
"2. c #BE4A01",
"3. c #A85006",
"4. c #A05F00",
"5. c #A85905",
"6. c #AC540D",
"7. c #BC5100",
"8. c #966600",
"9. c #9C7D02",
"0. c #A36502",
"q. c #AC6705",
"w. c #BA6900",
"e. c #A27200",
"r. c #AE7301",
"t. c #BA7A00",
"y. c #984A20",
"u. c #96512E",
"i. c #C74600",
"p. c #C14B00",
"a. c #D64400",
"s. c #C55500",
"d. c #CA5503",
"f. c #C55801",
"g. c #CB5C03",
"h. c #C05B0B",
"j. c #D05F06",
"k. c #D06006",
"l. c #D37405",
"z. c #E67300",
"x. c #969600",
"c. c #9C9C00",
"v. c #A48400",
"b. c #A88702",
"n. c #B18103",
"m. c #A69700",
"M. c #A89E01",
"N. c #A7A700",
"B. c #A8A500",
"V. c #A8A800",
"C. c #B6A201",
"Z. c #B2B200",
"A. c #BABA00",
"S. c #D09103",
"D. c #D09C03",
"F. c #C4C400",
"G. c #CFC401",
"H. c #CCCB00",
"J. c #D0C701",
"K. c #D0D000",
"L. c #DCDC00",
"P. c #E5CF00",
"I. c #E6E600",
"U. c None",
/* pixels */
"U.U.U.U.U.U.U.U.U.U.U.U.U.U.U.U.U.U.p ' W U.U.U.U.U.U.U.U.U.U.U.U.U.U.U.U.U.U.U.U.U.U.U.U.",
"U.U.U.U.U.U.U.U.U.U.U.U.U.U.U.U.h.k.g.j.] ] ' W ] U.U.U.U.U.U.U.U.U.U.U.U.U.U.U.U.U.U.U.U.",
"U.U.U.U.U.U.U.U.U.U.U.U.U.U.f.k.g.f.K 2.p.p.E r p ] ' W ` ] U.U.U.U.U.U.U.U.U.U.U.U.U.U.U.",
"U.U.U.U.U.U.U.U.U.U.U.U.p.g.g.;.u p I d.p.$.p.m A b M b r E ] ] ] ` ~ U.U.U.U.U.U.U.U.U.U.",
"U.U.U.U.U.U.U.U.U.=.g.f.g.p y u u K A P.G.A.F.K.K.K.K.K.I.P.A Z i y W I ] ] I I U.U.U.U.U.",
"U.U.U.U.U.U.U.6.g.d.g.i u K m } K.F.H.K.A.K.j.{ ( N #.K.L.K.F.K.S.G M y r r L W ] I ` j.U.",
"U.U.U.U.U.k.g.f.p.u K K H o.A.A.K.K.A.A...] g.j.K K K f.....I.I.I.l.$.g.j.d.f.p.W j.r i . ",
"U.U.U.k.f.g.! u K L I H i.L.K.L.I.z...] s.d.f.j.1.] 2.%...z.I.K.K.D.o.;.K u W ! j.p.* * X ",
"j k.7.k.] ] p.p.k.g.d...I.I.I.I.I...D k.E j.d.j.j.K y u K u y A ..A u W W ] j.p.2.8 * 8 9 ",
">.u r ] p.p.E E i y u F j.A.F.K.D.A D W I W j.@.p.1.W W K K u K K u K K -.f.g.* * * 0 9 9 ",
">.L u L T T ] ] p.T K K L d.K.K.F.A.K.K.H A X.I.L.I...) W ] ] L K K K g.d.7.* ; X . 9 0 9 ",
">.:.*.! ! ! T T ! ;.<.] ! K S ..a.A.K.H.A.F.K.L.K.I.I.H.+.O.` ] ] <.s.g.8 * 9 . . 7 8 . 8 ",
">.:.3.T T : E ! ! ! ! ! ;.p.] ] K u } A d.d.J.P.k...o.X.W ] ` W p.p.T 9 *       o 9 0 * 9 ",
">.:.3.T ! ! : r r p L T E ! ! L ] ] 2.] y K u u k.g.k.j.K ] s.s.p.8 * * . o w # : > $ * ; ",
">.>.:.e ! >.! : r r r r 2 K T T T T T ` ] ;.] K p g.p.g.1.p.p.; * 9 X   > f f f g > $ * 8 ",
">.>.:.: E 3.>.Y : x z x C V 2 : r ! ! Q E ! T ] ] ] ] 2.p.g.* 8 * X + q d f d k k 0 * * ; ",
">.:.! e u :.:.Z A >.V.5.c.x.G x A 1 : 2 K T T T T L p y % * 9 . . X 0 f f f f k f d * * 9 ",
">.:.! 2 r K >.A >.N.c.V.V.V.c.V.N.v.x 2 e : : :.T T y 9 % * * ; . + f d d f 0 k d > & $ 9 ",
">.-.! 2 u p A >.A.A.V.c.x.x.V.V.V.B.>.x 5 r >.:.-.! ! p 9 * 8 0 8 w d f 0 # > k > & $ X 0 ",
",.:.! : r p x A.A.A.A.M.V.V.B.N.x.c.V.B./ >.:.! *.:.! -.9 * 9 0 > k f # $ * > > & $ . X 0 ",
":.>.:.: r 6 3.V.B.Z.A.C.m x A 0.V.V.c.V.n./ :.>.:.>.! :.9 . 7 0 > k f X X * > & X . X X t ",
"-.>.:.: r n r.V.V.A.A.;.v u p L x >.N.A.A.A >.>.e r ! :.0 . X 8 t k g   . 0 t X . X X . t ",
"U.:.-.: : 6 0.x.V.V.A.Z *.r u p E A A.Z.Z.>._ u p y ! ! 0 X X $ k f , 0 7 t X . . + . 7 0 ",
"U.:.>.: : y e.V.c.N.Z.Z E 2 r >.>.A N.A.A.N.A p T T :.*.0 X X $ f k > * 0 t . . + = X 0 0 ",
"U.:.>.: : 4 r.V.x.N.V.Z Y *.>.:.>.A A 7.x.x.A L T T -.! 9 . X + f f > 7 0 7 0 > f - . 0 9 ",
"U.! >.: 2 r 8.N.N.c.x.x Q ! ! >.! ! >.u Z A A T p p -.! 0 . X > d f + ; 0 * > k f 9 . 8 9 ",
"U.*.:.2 2 r x B.N.V.V.Z Y :.>.>.>.Y u p K p p K T T ! ! 8 X $ > f f + 0 8 8 > f k : 8 9 0 ",
"U.:.>.2 r u r B Z.x.V.A *.3.>.>.p e r r r K T T T T ! ! 9 X X + f d > 0 X X t k 0 0 7 0 . ",
"U.:.:.2 r r u B A.A.A.A T >.p K T ! : 2 2 r r r p T ! *.0 . X + f f > 8 . + k f   9 $ . 8 ",
"U.>.:.: r K :.J 9.Z.A.q.A T r T ! >.i r r e 2 2 r r :.:.0 . . > d d -   + k f # . . $ 9 U.",
"U.>.*.K ! >.*.` t.V.V.B.x 2 r r >.A G : : 2 r r r r 3.:.0 . . + f k h # f d s . . * * U.U.",
"U.>.>.T ! ! >.>.) A.V.x.0.x 4 9 p A A.[ x A 1 e r r 3.:.0 . . o f k f d f f + . & * U.U.U.",
"U.T p *.K ! ! :.2 >.N.V.N.c.m.x c A x.c.Z.N.x 2 r r >.:.0 . . $ k d d f k > X * X U.U.U.U.",
"U.K u r T K : : 2 l x b.V.N.N.Z.A.r.A.A.c.N.x 2 2 2 -.:.0 . X $ 0 k f k @ X $ $ U.U.U.U.U.",
"U.U.u.p T p T Y : : : c N.A.x.x.V.V.A.A.V.6.A 2 p p :.:.0 . . 0 > 0 0 > * * $ U.U.U.U.U.U.",
"U.U.U.U.U.T K p K L i : < A w.V.c.V.V.V.C.A 3.: u T :.:.9 X X 0 9 +   $ * $ U.U.U.U.U.U.U.",
"U.U.U.U.U.U.U.y.T u p T L : : A A N.3.N._ A ! ! r u >.! 9 . & 0 . . * $ 8 U.U.U.U.U.U.U.U.",
"U.U.U.U.U.U.U.U.U.U.L K p K L i : 5 x 5 x :.>.:.p r >.! 0 X 8 9 . * $ 8 U.U.U.U.U.U.U.U.U.",
"U.U.U.U.U.U.U.U.U.U.U.U.^ T T T p p : : 2 : ! :.! 2 >.! 0 7 9 . * $ U.U.U.U.U.U.U.U.U.U.U.",
"U.U.U.U.U.U.U.U.U.U.U.U.U.U.U.p K L K y r : r ! ! p >.! 0 * % * $ U.U.U.U.U.U.U.U.U.U.U.U.",
"U.U.U.U.U.U.U.U.U.U.U.U.U.U.U.U.U.K u T T p p p p p 3.:.0 $ * % U.U.U.U.U.U.U.U.U.U.U.U.U.",
"U.U.U.U.U.U.U.U.U.U.U.U.U.U.U.U.U.U.U.U.u p T K T K 3.*.8 * * U.U.U.U.U.U.U.U.U.U.U.U.U.U.",
"U.U.U.U.U.U.U.U.U.U.U.U.U.U.U.U.U.U.U.U.U.U.R T u u e : X * U.U.U.U.U.U.U.U.U.U.U.U.U.U.U.",
"U.U.U.U.U.U.U.U.U.U.U.U.U.U.U.U.U.U.U.U.U.U.U.U.U.T &.e $ U.U.U.U.U.U.U.U.U.U.U.U.U.U.U.U.",
"U.U.U.U.U.U.U.U.U.U.U.U.U.U.U.U.U.U.U.U.U.U.U.U.U.U.U.6.U.U.U.U.U.U.U.U.U.U.U.U.U.U.U.U.U."
};
