/* XPM */
static char *result[] = {
/* columns rows colors chars-per-pixel */
"50 50 196 2 ",
"   c #075D01",
".  c #045F01",
"X  c #055F01",
"o  c #065E00",
"O  c #065F00",
"+  c #065E01",
"@  c #065F01",
"#  c #056001",
"$  c #056101",
"%  c #066000",
"&  c #066001",
"*  c #066101",
"=  c #056201",
"-  c #066300",
";  c #066201",
":  c #066301",
">  c #056202",
",  c #056302",
"<  c #056401",
"1  c #066401",
"2  c #076401",
"3  c #066501",
"4  c #056601",
"5  c #056701",
"6  c #066601",
"7  c #066701",
"8  c #046402",
"9  c #056402",
"0  c #046502",
"q  c #056502",
"w  c #046602",
"e  c #056602",
"r  c #046702",
"t  c #056702",
"y  c #046603",
"u  c #046703",
"i  c #036803",
"p  c #026903",
"a  c #036903",
"s  c #036A03",
"d  c #056801",
"f  c #056901",
"g  c #066801",
"h  c #066901",
"j  c #056A01",
"k  c #056B01",
"l  c #066A01",
"z  c #066B01",
"x  c #046802",
"c  c #056802",
"v  c #046902",
"b  c #056902",
"n  c #046803",
"m  c #046903",
"M  c #066802",
"N  c #046A02",
"B  c #056A02",
"V  c #046B02",
"C  c #056B02",
"Z  c #046B03",
"A  c #036C02",
"S  c #036C03",
"D  c #026D03",
"F  c #036D03",
"G  c #026E03",
"H  c #036E03",
"J  c #036F03",
"K  c #056C01",
"L  c #056D01",
"P  c #066C00",
"I  c #066D00",
"U  c #066C01",
"Y  c #076C01",
"T  c #066D01",
"R  c #056E01",
"E  c #056F01",
"W  c #046C02",
"Q  c #056C02",
"!  c #046D02",
"~  c #056D02",
"^  c #046C03",
"/  c #046D03",
"(  c #046E02",
")  c #056E02",
"_  c #046F02",
"`  c #056F02",
"'  c #046E03",
"]  c #046F03",
"[  c #026D04",
"{  c #026E04",
"}  c #026F04",
"|  c #026E05",
" . c #027003",
".. c #037003",
"X. c #027103",
"o. c #037103",
"O. c #027203",
"+. c #037203",
"@. c #037303",
"#. c #047002",
"$. c #057002",
"%. c #047102",
"&. c #047003",
"*. c #047103",
"=. c #047202",
"-. c #047302",
";. c #047203",
":. c #037402",
">. c #037403",
",. c #027503",
"<. c #037503",
"1. c #027603",
"2. c #037603",
"3. c #027703",
"4. c #037703",
"5. c #047402",
"6. c #047403",
"7. c #047503",
"8. c #047603",
"9. c #017004",
"0. c #017104",
"q. c #027004",
"w. c #027104",
"e. c #017204",
"r. c #017304",
"t. c #017305",
"y. c #027204",
"u. c #027304",
"i. c #027305",
"p. c #017404",
"a. c #017504",
"s. c #007405",
"d. c #017405",
"f. c #007505",
"g. c #017505",
"h. c #027404",
"j. c #027504",
"k. c #007604",
"l. c #017604",
"z. c #007704",
"x. c #017704",
"c. c #007605",
"v. c #017605",
"b. c #007705",
"n. c #017705",
"m. c #027604",
"M. c #027704",
"N. c #007606",
"B. c #037803",
"V. c #027903",
"C. c #037903",
"Z. c #037A03",
"A. c #027B03",
"S. c #027C03",
"D. c #017904",
"F. c #007805",
"G. c #017805",
"H. c #007905",
"J. c #027804",
"K. c #027904",
"L. c #017A04",
"P. c #017B04",
"I. c #007A05",
"U. c #017A05",
"Y. c #007B05",
"T. c #027A04",
"R. c #027B04",
"E. c #007806",
"W. c #007906",
"Q. c #007A06",
"!. c #007B06",
"~. c #007C04",
"^. c #017C04",
"/. c #017D04",
"(. c #007C05",
"). c #017C05",
"_. c #007D05",
"`. c #027C04",
"'. c #027D04",
"]. c #017F04",
"[. c #007E05",
"{. c #007F05",
"}. c #017F05",
"|. c #027E04",
" X c #027F04",
".X c #018004",
"XX c #008005",
"oX c #018005",
"OX c #008105",
"+X c #018105",
"@X c #008205",
"#X c #018205",
"$X c #008305",
"%X c #018006",
"&X c #008405",
"*X c #008505",
/* pixels */
"+ + # q.c.c.w + + 6 U U o.c.c.S + + w v.c.u.L U U U U z ; + @ { c.c.c.c.c.s + + + + + w c.c.c.c.c.c.",
"+ + # q.c.c.w + + 6 U U o.c.c.S + + w v.c.u.L U U U U z ; + @ { c.c.c.c.c.s + + + + + w c.c.c.c.c.c.",
"# # , 9.c.c.m = = d L L +.c.c.F @ @ r c.c.u.K z z U U z 3 = > } c.c.f.d.d.s # # & @ @ w t.d.s.c.c.c.",
"q.q.9.s.c.c.D.T.T.m.u.u.g.c.c...g g ! c.c.w.< ; 1 l U T 2.T.T.n.c.c.S 8 8 s q.q.F g g 5 8 8 a s.c.c.",
"c.c.c.c.c.c.{.&X&X(.c.c.c.c.c.+.U U _ c.c.q.# + * l U R |.&X&XY.c.c.n + + s c.c.+.U U 7 + + 8 d.c.c.",
"c.c.c.c.c.c.{.&X&X(.c.c.c.c.c.o.U U _ c.c.q.# + * l U R '.$X$XI.c.c.n + + s c.c.+.U U g @ @ 0 t.c.c.",
"c.c.s.s w r p.Y.Y.h._ _ V w w q : : W {.{.M.$ + * l U U C V V ( _ _ q + + s c.c.+.U U $.M.M.<.&._ _ ",
"c.c.d.8 + @ { b.c.&.U U 3 + + + + + V $X&XT.= + * l U z ; + + 7 U U 1 + + s c.c.+.U U 5.&X&X|.R U U ",
"c.c.d.8 + @ { c.c.&.U U 3 + + + + + V $X&XT.= + * l U z ; + + 7 U U 1 + + s c.c.+.U U 5.&X&X|.R U U ",
"&.&.o.@.>.>.+.....b 1 1 3 6 6 6 6 6 ( (.(.m.d 6 l 8.Z.B.C 6 6 l U U %.>.>.D.[.[.@.1 2 ) $X&X+XR.Z.Z.",
"U U R |.&X&X:.K U 1 + + 3 U U U U U _ c.c.u.L U $. X&X#X=.U U U U U Z.&X&X&X&X&X>.+   B $X&X&X&X&X&X",
"U U R |.&X&X5.U U 1 + + 3 U U U U U _ c.c.u.L U $..X&X#X=.U U U U U Z.&X&X&X&X&X>.+ + V $X&X&X&X&X&X",
"3 3 6 ' o.o.o.o.o.B 3 3 C o.o.W 3 3 t s s Z U U R 8.B.2.B 3 3 3 3 3 #.B.B.R._._.@.3 3 ! _._.U.+.o.o.",
"+ + + + + @ G k.c.&.U U o.c.c.S o + + + + ; z U U U U z ; + + + + + 6 U U o.c.c.+.U U _ c.c.q.# + + ",
"+ + + + + @ { b.c.&.U U o.c.c.S + + + + + ; z U U U U z ; + + + + + 6 U U o.c.c.+.U U _ c.c.q.# + + ",
"' ' ' ' ' H F S S Q U U >.(.(.l.' ' V 1 1 f 6.8.-.h 6 7 W ' ' 5 1 1 ) 8.8.m.c.c.J 6 6 ( (.(.h.$ + + ",
"&X&X&X&X&X$XV + + 6 U U B.&X&X&X&X&X`.T U =.#X&X/.q + = T.&X&X5.P U Z.&X&X_.c.c.S + + V $X&XT.= + + ",
"&X&X&X&X&X$XV + + 6 U U B.&X&X&X&X&X`.T U =.#X&X/.q + = T.&X&X5.U U Z.&X&X_.c.c.S + + V $X&XT.= + + ",
"{.{.{.'.S.A.C : : 3 7 7 @.{.{.^.M.3.@.U U ` 1.M.@.e : 3 +.M.M.$.U U 7.`.`.j.{ { F V V J M.M.>.^ V V ",
"c.c.g._ I P U U U 1 + + s c.c.S @ O - U U h & @ * h U l ; @ @ g U U U T T 6 @ @ H $X$XM.@ @ x oX$X$X",
"c.c.g._ U U U U U 1 + + s c.c.S + + : U U g @ + * l U z ; + + 7 U U U U U 3 + + ' &X&XM.@ + x oX&X&X",
"I.I.G.! g g z U U B x x w.I.I...; ; 5 =.=.~ & + * l U U b x x d h g l U U 7 ; ; ] OXXXJ.x x / J.T.T.",
"$X$X}.v @ & g U U B.oXoXOX$X$XB.z z =.+X#XJ.= + * l U R R.oXoXV # % 7 U U z z z &.F.F.I.%XoXJ.q = = ",
"&X&XoXx + + 7 U U Z.&X&X&X&X&XZ.U U 5.&X&XT.= + * l U R |.&X$XA X + 6 U U U U U &.c.c.Y.&X&XT.= + + ",
".X.X'.b * * b ) ) B..X.X.X.X.XB.) ) <.OXOXK.< * : ) $.=./.OXOXA $ * 6 l l L $.$.o.e.e.n.OXOXJ.= + + ",
"$.$.$.z l l o.p.p.+.$.$.$.$.$.+.p.p.v.F.H.j.k l ) `..X}.Q.W.F._ l l 1 * * &..X.X@.> > s E.H.y.$ + + ",
"U U U U U U u.c.c.&.U U U U U &.c.c.c.c.c.u.L U $..X&X$XQ.N.c._ U U 1 + + o.&X&X>.+ + y c.c.q.# + + ",
"E E R R R E u.g.g.o.R R T U U ] d.d.d.g.g.y.K z ` '.#XoXG.g.g.*.R R 4 $ # +.$X$X,.= = n g.g.q., # # ",
"|.|.|.|.|.'.>._ _ 4.|.|.7.U U f 8 8 x ( _ C : ; 3 ` =.=.#._ _ C.|.|.1. .q.g.I.I.L.T.T.1._ _ ] q.q.q.",
"*X&X&X&X&X&X5.U U Z.&X&XB.U U 6 + + : U U g @ + * l U U U U T `.&X&X~.z.c.c.c.c.(.&X&X`.L U _ g.c.c.",
"$X$X$X$X&X$X5.U U Z.&X&XB.U U 6 + + : U U h & @ * l T U U U U `.&X&X(.c.c.c.c.c.(.&X&X`.T U _ g.c.c.",
"V V W ;.6.5.E U U <.Y.Y.@.U U 6 + + q y.u.h.M.M.J.R.`.V.f : : i.!.Y.} w w { c.c.j.5.5.>.u.u.J u w w ",
"+ + @ M U U U U U +.c.c.o.U U 6 + + w c.c.I.$X&X&X&X&XoXx + @ | N.c.n + + s c.c.O.U U _ c.c.q.# + + ",
"+ + @ g U U U U U +.c.c.o.U U 6 + + w c.c.I.$X&X&X&X&XoXx + @ { c.c.n + + s c.c.O.K U _ c.c.q.# + + ",
">.>.+.c 1 1 / +.+.D a i o.Z.Z.4.>.>.j.c.c.l.2.8.7.&.' / d 6 6 ! &.&.e + + , n n S O.O.J i n w @ + + ",
"&X&XoXx + @ { c.c.p . + o.&X&X&X&X&X{.c.c.u.L U l * + @ g U U U U U 1 + + + + + n c.c.{ @ + + + + + ",
"&X&XoXx + @ { c.c.p . + o.&X&X&X&X&X{.c.c.u.L U l * + @ g U U U U U 1 + + + + + n c.c.{ @ + + + + + ",
"_._.U.w + @ { c.c.p . + H _._._._._.x.s s Z U U l * + & ^ o.o.b 3 3 3 3 3 ; + + e *.o.J s s m 6 3 3 ",
"c.c.d.8 + @ { c.c.p . + s c.c.c.c.c.{ @ + ; z U l * + # q.c.c.w + + 6 U U 3 + + 1 Y U _ c.c.u.L U U ",
"c.c.d.8 + @ { c.c.p . + s c.c.c.c.c.{ @ + ; z U l * + # q.c.c.w + + 6 U U 3 + + 1 U U _ c.c.u.L U U ",
"(.(.Y.+.' H o.O.+.D a i F +.+.+.+.+.J i n x 4 6 6 x n s J +.o.q + + : 6 6 t n n B U U ) +.+.J 7 6 6 ",
"&X&X&X&X&X&X:.K U +.b.c.o.U U U U U _ c.c.9.# + > y.v.v._ U U : + + + + + s c.c.+.U U U U U g O o o ",
"&X&X&X&X&X&X:.K U +.c.c.o.U U U U U _ c.c.q.# + > e.c.g._ U U : + + + + + s c.c.+.U U U U U g @ + + ",
"&X&X$XXX{.{._ 7 7 @.Y.Y.@.U U l 7 7 W c.c.r.^ V ^ X.u.y..._ _ W V V V V V q.c.c.u._ _ ~ 7 7 5 w w w ",
"&X&X$XI.c.c.w + + >.&X&XB.U U 6 + + w c.c.I.@X$X].$.U L u.c.c.{.$X$X$X$X$X_.c.c.c.c.c.{ @ + 8 t.c.c.",
"&X&X$XI.c.c.w + + >.&X&XB.U U 6 + + w c.c.I.$X&X.X$.U L u.c.c.{.&X&X&X&X&X_.c.c.c.c.c.{ @ + 8 d.c.c.",
"T.T.L.b.c.c.w + + +.XXXX2.U U f 8 8 i q.q.a.@X&X].~ g j y.c.c.P.|.|.+X&X&X).u.u.l.I.I.y.; ; r d.c.c.",
"= = 9 0.c.c.w + + F b.b.+.U U ] d.d.[ $ # N oX&X/.e @ = q.c.c.*.R R R.&X&XC.L L 2.$X$XT.z z ( g.c.c.",
"+ + # q.c.c.w + + S c.c.o.U U &.c.c.{ @ + x oX&X/.q + # q.c.c._ U U Z.&X&XB.U U 8.&X&X`.T U _ g.c.c.",
"+ + # q.c.c.w + + S c.c.o.U U &.c.c.{ @ + x oX&X/.q + # q.c.c._ U U Z.&X&XB.U U 8.&X&X`.T U _ g.c.c."
};
