/* XPM */
static char *result[] = {
/* columns rows colors chars-per-pixel */
"29 45 167 2 ",
"   c #010101",
".  c #0C0200",
"X  c #03030C",
"o  c #0E0E0E",
"O  c #150200",
"+  c #1C0200",
"@  c #150C06",
"#  c #08061C",
"$  c #050414",
"%  c #111111",
"&  c #1F1A1A",
"*  c #240100",
"=  c #2B0100",
"-  c #2F0800",
";  c #260D0D",
":  c #330000",
">  c #390000",
",  c #300900",
"<  c #3E0C00",
"1  c #241200",
"2  c #2E1500",
"3  c #251414",
"4  c #2B1A1A",
"5  c #341C1C",
"6  c #332516",
"7  c #08092B",
"8  c #000D32",
"9  c #080832",
"0  c #070738",
"q  c #0B0B3C",
"w  c #00103F",
"e  c #470000",
"r  c #4B0000",
"t  c #4D0E00",
"y  c #430C00",
"u  c #411101",
"i  c #591100",
"p  c #5D1900",
"a  c #401717",
"s  c #640000",
"d  c #7B0000",
"f  c #651200",
"g  c #6C1300",
"h  c #6D1A08",
"j  c #751500",
"k  c #7B1500",
"l  c #592700",
"z  c #572700",
"x  c #6D3000",
"c  c #773500",
"v  c #4B2A2A",
"b  c #572F2F",
"n  c #57302F",
"m  c #673838",
"M  c #683A3A",
"N  c #713F3F",
"B  c #0A0A44",
"V  c #0B0B4A",
"C  c #001346",
"Z  c #0D0D50",
"A  c #0E0E59",
"S  c #001555",
"D  c #10105C",
"F  c #001964",
"G  c #111163",
"H  c #12126D",
"J  c #001F7A",
"K  c #001E74",
"L  c #141473",
"P  c #151578",
"I  c #322468",
"U  c #564A4A",
"Y  c #515151",
"T  c #784444",
"R  c #7E5D5D",
"E  c #7B6D5F",
"W  c #6F6F6F",
"Q  c #756262",
"!  c #830000",
"~  c #8E0000",
"^  c #811600",
"/  c #851800",
"(  c #8D1900",
")  c #941B00",
"_  c #9B1C00",
"`  c #A60000",
"'  c #A31D00",
"]  c #AB1F00",
"[  c #94250A",
"{  c #823A01",
"}  c #9C3100",
"|  c #822813",
" . c #AC2100",
".. c #A62409",
"X. c #B42100",
"o. c #BA2300",
"O. c #B32C00",
"+. c #C32400",
"@. c #CB2700",
"#. c #D12700",
"$. c #D42800",
"%. c #DC2B00",
"&. c #E42F00",
"*. c #E92F00",
"=. c #E73102",
"-. c #EC3100",
";. c #F33400",
":. c #FD3A00",
">. c #F33D00",
",. c #CC2E25",
"<. c #964400",
"1. c #9B4600",
"2. c #A84D00",
"3. c #AF5100",
"4. c #BC5800",
"5. c #D54809",
"6. c #CD6300",
"7. c #D86B00",
"8. c #E37300",
"9. c #E97700",
"0. c #EA7900",
"q. c #F07E00",
"w. c #D64121",
"e. c #E64D25",
"r. c #884B4B",
"t. c #8D5050",
"y. c #A24C45",
"u. c #A05C5C",
"i. c #907979",
"p. c #B76969",
"a. c #E27B5E",
"s. c #C36D6D",
"d. c #C67575",
"f. c #CD7575",
"g. c #D67B7B",
"h. c #F88600",
"j. c #F88800",
"k. c #F48300",
"l. c #FE9100",
"z. c #00248A",
"x. c #002694",
"c. c #00289A",
"v. c #00279A",
"b. c #002BA7",
"n. c #878282",
"m. c #978080",
"M. c #918887",
"N. c #979797",
"B. c #A18080",
"V. c #A78F8F",
"C. c #B99897",
"Z. c #B49A9A",
"A. c #AFAFAF",
"S. c #A7A2A1",
"D. c #B9B8B8",
"F. c #C2C2C2",
"G. c #C9C4C4",
"H. c gray80",
"J. c #D0C9C7",
"K. c #D1CCCB",
"L. c #DDD1CD",
"P. c #DDDCDC",
"I. c #D9D6D6",
"U. c #E3E2E2",
"Y. c #EEEDED",
"T. c #FEFDFD",
"R. c None",
/* pixels */
"R.R.R.R.R.R.R.R.R.R.R.R.R.R.R.R.R.R.R.R.R.R.R.R.R.R.R.R.R.",
"R.R.R.R.R.R.R.R.R.R.R.R.R.R.R.R.s R.R.R.R.R.R.R.R.R.R.R.R.",
"R.R.R.R.R.R.R.R.R.R.R.R.R.R.R.R.R.R.R.R.~ R.R.R.R.R.R.R.R.",
"R.R.R.R.R.R.R.. R.R.R.R.R.R.R.R.: ! R.` R.R.R.O R.R.R.R.R.",
"R.R.R.R.R.R.R.R.O o R.R.R.R.R.r e ! d R.R.@.h R.R.R.R.R.R.",
"R.R.R.R.R.R.R.R.R.* % % R.R.R.O s s ` / %.;.o R.R.R.R.R.R.",
"R.R.R.R.R.R.R.R.R.  = % [ _ %.[ %.&.p #.1 o.@ R.R.R.R.R.R.",
"R.R.R.R.R.R.R.R.R.R.O = % ;.-.O 1 6 E / G.u   R.R.R.R.R.R.",
"R.R.R.R.R.R.R.R.R.R.  < X.&.=. .e.I.K./ J.D.R.  R.R.R.R.R.",
"R.R.R.R.R.R.R.R.R.R.+ t [ #.$.%.K.J.U | L.S.R.R.R.R.R.R.R.",
"R.R.R.R.R.R.R.R.R.R.k ( o.p.,.&.=.a.$.@.@.@.R.R.R.R.R.R.R.",
"R.R.R.R.R.R.R.R.R./  .X...n T u.p.d.*.;.;.$.R.R.R.R.R.R.R.",
"R.R.R.R.R.R.R.R.* +.@.+. .3 U.5 v M T t.y.#.# 7 9 R.R.R.R.",
"R.R.R.R.R.R.R.R.@.%.#.+._ n U.Y.Y.4   % 4 4 X $ # R.R.R.R.",
"R.R.R.R.R.R.R./ %.%.#.X.) r.i.o Y.Y.U.U.G.R.R.R.R.R.R.R.R.",
"R.R.R.R.R.R.R.%.=.%.o. .) { u.U.F.F.A.N.M.k R.R.R.R.R.R.R.",
"R.R.R.R.R.R. .-.&.$.  _ / <.t.P.U.U.I.F.g ) R.R.R.R.R.R.R.",
"R.R.R.R.R.R.=.-.%.R.  f k 2.5 d.g.f.s.p.( ) R.R.R.R.R.R.R.",
"R.R.R.R.R.o.;.&.( R.  , j O.z M N N m 3 f ' R.R.R.R.R.R.R.",
"R.R.R.R.R.-.-.X.R.R.  + j X.c x l 2 R.R.- +.) R.R.R.R.R.R.",
"R.R.R.R.X.;.o.R.R.R.R.. k o.1.3.<.l R.R.O o.@.R.R.R.R.R.R.",
"R.R.R.R.#.-.R.R.R.R.R.  k o.6.7.4.c R.R.R._ $.R.R.R.R.R.R.",
"R.R.R.R.#.&.R.R.R.R.R.  f X.8.9.8.{ R.R.R./ %.R.R.R.R.R.R.",
"R.R.R.R.%.$.R.R.R.R.R.R.-  .9.k.9.R.R.R.R.f %.R.R.R.R.R.R.",
"R.R.R.R.=., R.R.R.R.R.R.   .q.h.9.R.R.R.R.O %.R.R.R.R.R.R.",
"R.R.R.R.;.R.R.R.R.R.R.R.R.o.>.j.4.R.R.R.R.R.%.R.R.R.R.R.R.",
"R.R.R.R.*.R.R.R.R.R.R.R.R.k ;.l.} k R.R.R.R.+.R.R.R.R.R.R.",
"R.R.R.: > R.R.R.R.R.R.R.R.q G ,.l.5.R.R.R.R.: O R.R.R.R.R.",
"R.R.O > = > = R.R.R.R.R.R.V G P L D 9 R.R.R.> + R.R.R.R.R.",
"R.R.= > * + X.:.%.R.R.R.R.V L P G A G R.R.R.:.* R.R.R.R.R.",
"R.O : > * O R., + R.R.R.X D L P B B Z Z R.R.  * + R.R.R.R.",
"R.i k > * . R.R.R.R.R.R.7 D L L R.0 B L R.R.R.* * R.R.R.R.",
"  O ^ ' X./ R.R.R.R.R.R.q G P D R.$ 0 V H R.R.%.t R.R.R.R.",
"    i / _ < R.R.R.R.R.R.F v.b.w R.  8 S c.R.$.' R.R.R.R.R.",
"    . j y - R.R.R.R.R.8 J v.v.R.R.  8 S v.K ^   R.R.R.R.R.",
"R.R.  R.  R.R.R.R.R.R.S z.v.z.R.R.R.8 z.z.J R.R.R.R.R.R.R.",
"R.R.R.R.R.R.R.R.R.R.R.C I O R.R.R.R.R.j R.R.R.R.R.R.R.R.R.",
"R.R.R.R.R.R.R.R.R.R.R.R.@.R.R.R.R.R.R.+.R.R.R.R.R.R.R.R.R.",
"R.R.R.R.R.R.R.R.R.R.R.R.C.R.R.R.R.R.R.t.R.R.R.R.R.R.R.R.R.",
"R.R.R.R.R.R.R.R.R.R.R.. T.R.R.R.R.R.@ : R.R.R.R.R.R.R.R.R.",
"R.R.R.R.R.R.R.R.R.R.R.* T.= R.R.R.R.O > ; R.R.R.R.R.R.R.R.",
"R.R.R.R.R.R.R.R.R.R.O * : = R.R.R.R.* > G.v a : : : : = R.",
"R.R.R.R.R.R.R.R.R.R.O : > : = R.R.R.* : : = : = : > : : R.",
"R.R.R.R.R.R.R.R.R.. + = > > = O R.  * : = = : : : > : = * ",
"R.R.R.R.R.R.R.R.R.4 U i.F.H.D.U R.  Y Q n.N.S.m.V.Z.Z.F.W "
};
