/* XPM */
static char *result[] = {
/* columns rows colors chars-per-pixel */
"50 50 179 2 ",
"   c #3D1A1C",
".  c #2F182D",
"X  c #341625",
"o  c #3D1F23",
"O  c #321629",
"+  c #341E2E",
"@  c #3E1F29",
"#  c #231335",
"$  c #251639",
"%  c #251A3D",
"&  c #2A1B3E",
"*  c #301B32",
"=  c #361F3E",
"-  c #2F2237",
";  c #2A223C",
":  c #352234",
">  c #3C2333",
",  c #36223C",
"<  c #3D253C",
"1  c #4C1708",
"2  c #521600",
"3  c #571800",
"4  c #5C1B00",
"5  c #541B09",
"6  c #421B1C",
"7  c #4F1E1A",
"8  c #511D14",
"9  c #571E1A",
"0  c #611D00",
"q  c #47201E",
"w  c #4D221B",
"e  c #532213",
"r  c #582415",
"t  c #54231B",
"y  c #5A241B",
"u  c #58291B",
"i  c #672000",
"p  c #6B2201",
"a  c #662409",
"s  c #6B2608",
"d  c #752300",
"f  c #7C2500",
"g  c #7A2902",
"h  c #772708",
"j  c #792709",
"k  c #7A2C08",
"l  c #65271B",
"z  c #69271D",
"x  c #7F3317",
"c  c #77331E",
"v  c #7C331D",
"b  c #431F29",
"n  c #431F34",
"m  c #442224",
"M  c #4E2722",
"N  c #4A2229",
"B  c #4F2829",
"V  c #522922",
"C  c #5C2923",
"Z  c #532929",
"A  c #5B2929",
"S  c #42263C",
"D  c #402C3D",
"F  c #4E2C3A",
"G  c #4C313E",
"H  c #53343E",
"J  c #662F23",
"K  c #632A29",
"L  c #6C2E29",
"P  c #6F3323",
"I  c #6F332A",
"U  c #743323",
"Y  c #7B3323",
"T  c #7F3823",
"R  c #743329",
"E  c #7A342A",
"W  c #7F382A",
"Q  c #251F41",
"!  c #2B1D43",
"~  c #2E1F48",
"^  c #301F46",
"/  c #301F48",
"(  c #242244",
")  c #2C2245",
"_  c #272649",
"`  c #2B2549",
"'  c #2C2B4D",
"]  c #322244",
"[  c #32254A",
"{  c #322A4D",
"}  c #3F2F4A",
"|  c #37324F",
" . c #3E334C",
".. c #2E2550",
"X. c #2E2C52",
"o. c #302750",
"O. c #382754",
"+. c #332C52",
"@. c #3A2952",
"#. c #332E5B",
"$. c #3D2E5D",
"%. c #333355",
"&. c #383352",
"*. c #34335B",
"=. c #3A335C",
"-. c #343365",
";. c #3C3365",
":. c #3D3863",
">. c #373568",
",. c #3F366B",
"<. c #3D386A",
"1. c #442944",
"2. c #4A2B46",
"3. c #422F49",
"4. c #463345",
"5. c #4E3341",
"6. c #4D334B",
"7. c #553246",
"8. c #55334D",
"9. c #5B344D",
"0. c #5A384B",
"q. c #4A3350",
"w. c #41315E",
"e. c #4C335C",
"r. c #533451",
"t. c #603443",
"y. c #62374C",
"u. c #443366",
"i. c #493462",
"p. c #463569",
"a. c #48376A",
"s. c #453B6C",
"d. c #4A3A6D",
"f. c #463D71",
"g. c #4D3D71",
"h. c #503F72",
"j. c #503F79",
"k. c #4D406F",
"l. c #4D4173",
"z. c #4C437A",
"x. c #544376",
"c. c #53467C",
"v. c #58477D",
"b. c #55487F",
"n. c #822700",
"m. c #852900",
"M. c #8B2C00",
"N. c #812B09",
"B. c #912F00",
"V. c #8F3000",
"C. c #953100",
"Z. c #9A3300",
"A. c #923309",
"S. c #993309",
"D. c #8E3917",
"F. c #81331D",
"G. c #8D331A",
"H. c #973B13",
"J. c #9A3F1C",
"K. c #A23400",
"L. c #AB3400",
"P. c #A33B07",
"I. c #AC3A00",
"U. c #A23709",
"Y. c #AC3D08",
"T. c #B33E00",
"R. c #823B29",
"E. c #8A3C2A",
"W. c #923E23",
"Q. c #AF4106",
"!. c #B74000",
"~. c #BA4300",
"^. c #B24309",
"/. c #554782",
"(. c #584784",
"). c #564A84",
"_. c #594A86",
"`. c #5C4C8A",
"'. c #625192",
/* pixels */
"x.x.v.x.x.x.x.x.h.p.u.a.x.a.d.x.x.h.u.h.g.u.u.;.-.*.%.%.%.%.%.] ) ( ( Q [ %.%.*.-.u.u.u.u.u.u.u.u.u.",
"x.x.x.x.x.x.v.x.h.u.u.a.x.a.d.x.x.h.p.h.g.u.u.;.-.*.*.%.%.%.%.] ( Q ( ) [ %.*.*.-.:.p.u.u.u.u.u.p.i.",
"x.v.x.v.x.l.x.x.g.p.u.a.x.h.g.g.h.d.u.h.g.u.;.<.>.%.+.%.%.%.{ ] _ _ X.[ [ %.%.*.-.u.u.p.a.d.u.u.u.u.",
"x.x.v.'.l.=.u.i.p.p.i.u.p.(.c.=.u.p.p.i.;.-.>.z.).X.' %.%.{ ) ( ( *.`.-._ %.*.-.-.;.u.p._.z.%.u.u.u.",
"x.x.x.l.&.[ u.u.u.u.u.p.u.g.:.! $.u.;.;.-.-.*.:.=.) _ | { [ ( ( ( { s.` ! -.-.>.;.u.u.u.f.=.! $.u.u.",
"x.x.l.=.[ ~ u.u.u.u.u.u.u.=.[ ! #.;.-.-.-.-.*.' ( % ) { ] ) ( ( [ ` ( ; ~ -.-.;.u.u.u.u.;.[ ~ w.u.u.",
"x.x.x.u.u.u.u.u.u.u.i.u.u.u.u.w.;.-.-.*.%.%.%.X.%.%.{ ] ] ) ( ] ' %.%.X.#.-.;.u.u.p.u.u.u.u.w.u.u.u.",
"x.x.h.u.u.u.u.O./ ^ ^ ^ b b b b @ @ @ o o o o o m M q 6 w 6   t u V V V B B < ^ ~ / O.p.u.u.u.u.u.u.",
"v.x.x.u.;.;.u.~ % / ~ *   1 2 2 2 2 2 2 2 2 2 2 2 i 0 3 0 4 3 0 p p p p a y 1.^ & # ~ u.p.u.:.<.u.u.",
"x.x.x.a.;.-.-.! o.'.s.+.&.y d d d d d d d d d d d d d d f d f f d f d d z u._.c.+.% / u.u.;.-.>.-.-.",
"d.d.a.;.-.-.*.) ! s.+.) %.3.K M.M.M.M.M.M.M.M.M.M.M.M.B.M.M.M.M.M.M.M.I 2.X.:.=.% $ ! >.;.-.-.*.*.*.",
"u.u.u.*.-.*.%.- * &.` ` =.-.8.F.A.Z.K.Z.K.K.Z.K.Z.K.Z.Z.Z.Z.Z.K.Z.A.v 7.@.) _ ` $ O , *.-.-.*.%.%.#.",
"u.u.;.%.%.%.%.o 6 i.=.*.-.;.u.i.F.K.L.L.L.L.L.L.L.L.K.Z.Z.Z.Z.L.L.G.%.[ ] ] _ Q ( e Z %.%.%.%.%.%.%.",
"x.g.x./.:.` [   5 Y 6.$.;.u.u.u.9.E Z.K.T.T.T.T.T.!.T.^.I.T.T.!.T 5.%.%.[ ] ! > e p C %.z.<._ _ _ _ ",
"x.x.x.z.#.% [   4 C.R 6.u.u.u.u.u.8.Y S.L.T.T.T.T.T.!.~.~.~.Q.D.H %.%.%.&.[ > u g f u +.k.-.Q _ _ _ ",
"x.x.d.' % & %.o 4 Z.C.R.i.u.u.u.-.-.$.v K.L.L.L.L.L.T.~.~.~.H.< { %.%.%.%.&.u g C.n.y ] ( % $ +.*.%.",
"x.v.k.+.' X.-.@ 0 C.K.S.J.9.u.-.-.-.-.q.R K.L.L.T.T.~.~.I.R.H ] [ [ %.%.4.u k V.C.n.t ) ' ' ' *.-.-.",
"d.d.d.-.*.*.-.@ 4 C.K.I.I.W 8.;.-.-.-.-.2.U S.L.I.T.I.P.F.F ` ) ) ] { D V g C.C.M.f y _ X.=.*.-.-.-.",
"u.p.;.>.-.-.-.@ 4 C.C.C.C.Z.Y e.;.-.-.-.-.$.F.A.Z.Z.A.F. .' ( ( ) ] < r g Z.Z.V.f f y ] o.*.-.-.-.-.",
"u.u.u.u.:.u.;.b 3 g n.f n.f N.F.r.;.-.,.u.u.r.R Z.Z.E 6._ ( ( ( ( : r k C.Z.C.C.M.f C +.-.-.-.;.;.;.",
"d.d.d.i.;.;.;.b 3 n.m.m.M.m.M.Z.R 8.;.u.u.u.u.9.L l F X.( ( ( ( : w p f m.M.M.m.M.f C #.;.;.;.u.u.u.",
"x.x.h.p.;.-.-.@ 4 C.C.C.C.C.C.C.C.E e.i.u.u.u.u.$.% % ( ( ( ( ; w d f f g f f f f d A -.;.u.u.;.u.u.",
"p.p.p.;.*.*.%.o 3 f f f f f f f B.A.F.r.u.u.u.,.-.#._ $ ( ( - e g V.C.B.C.C.C.V.B.f K u.p.p.u.;.-.>.",
"u.u.p.z.;.' { o 3 m.m.M.m.M.m.M.C.Z.C.E 9.u.u.p.z.;.' ( % + w i f M.m.M.M.m.M.m.M.f K p.j.p.#.-.-.-.",
"u.p.d._.;.( ] 6 4 C.Z.Z.Z.C.C.C.Z.B.B.B.L $.-.z.).=.%.' % 7 d g f f f f f f f f f f K u./.p.( #.-.-.",
"u.u.;.+.Q % { M d Z.Z.Z.Z.m.g m.f f f f 9 ! $.:.=.% _ %.{ J C.C.C.C.C.C.C.C.C.V.C.f A -.X._ $ ' %.*.",
"g.g.p.+.` _ *.N 0 Z.Z.K.I.Z.Z.Z.Z.Z.Z.L n # ! O.#.` { %.%.G P C.Z.K.I.I.I.I.I.I.I.n.C -.X._ ) %.%.%.",
"h.x.d.*.%.*.>.@ 0 C.L.T.~.~.~.~.~.^.J.r./ # # ) $.&.=.%.%.%.4.x S.L.!.~.!.!.~.~.!.m.C %.%.%.%.| X.X.",
"p.p.p.-.-.-.-.B d C.K.I.~.~.~.~.~.W.e.[ % # # # & $.=.%.%.%.%. .c K.L.L.L.L.L.L.L.m.C %.%.{ { ( _ ( ",
"u.u.u.-.;.:.;.N i Z.Z.L.T.T.T.T.E.t.@.` % $ # X 8 L 9.=.%.%.*.*.6.R Z.L.I.T.T.T.T.m.y { { [ ] ) _ ) ",
"u.u.u.-.;.u.u.N 4 C.Z.K.L.L.U.G.9.@.] ) ( ( + 8 g C.E 8.=.%.*.-.-.q.F.S.L.~.~.~.!.M.y ] ] ] [ [ ] [ ",
"u.u.u.u.p.u.p.Z d Z.K.T.~.~.W.e.=.{ ] ] ) ; 8 g C.C.K.G.e.-.>.>.-.;.e.Y K.L.!.~.!.M.t _ , { %.%.%.%.",
"g.h.a.p.u.u.u.A d C.K.I.~.E.y.>.*.+.{ ] > e g V.Z.K.I.Y.W.0.-.>.-.:.p.9.E Z.L.T.~.M.y ) { %.%.%.%.%.",
"x.x.j.j.p.;.u.A g C.K.P.J.0.;.>.*.*.%.< u g C.Z.Z.L.T.T.T.R.r.-.u.u.u.u.9.v S.L.T.M.y { u.=.' %.%.%.",
"x.x.v.'.l.=.u.Z d C.Z.F.u.=.*.>.-.*.&.r g C.Z.K.L.L.L.L.L.T.J.e.u.p.u.u.;.-.Y Z.L.m.C =._.f.( %.%.%.",
"x.x.x.u.` ) ;.Z d C.P G @.%.%.*.-. .u k C.Z.K.L.T.T.T.T.T.!.Q.J.y.u.u.u.u.-.6.I Z.n.C %.:.' % #.*.-.",
"x.x.k.X._ ~ -.B s x G ' ] { %.%.3.Z p V.Z.Z.K.I.T.T.I.^.T.I.^.Q.W 8.u.u.u.-.-.q.c h C #.X._ ~ #.;.;.",
"x.x.l.-.-.-.-.Z u %._ ) ] { %.%.r p f C.Z.Z.Z.Z.Z.Z.Z.Z.Z.Z.Z.Z.Z.F.i.u.;.-.-.-.+.l A -.-.-.u.p.p.u.",
"x.x.x.;.-.*.*., < b.=.' ( [ S u s g V.C.C.Z.C.M.n.n.n.n.n.n.n.n.B.A.Y 9.;.-.z.f.%.S } -.;.u.u.u.u.u.",
"x.g.s.-.*.%.%.Q ` c.=._ ( > t p d m.Z.Z.Z.Z.Z.V.n.n.n.m.n.m.m.n.B.Z.Z.R 8.;.j.f.) ] O.;.u.u.u.u.u.u.",
"i.u.u.*.%.%.%.Q & %.% % ; e p d d m.C.Z.Z.C.Z.Z.Z.Z.C.Z.C.Z.C.Z.Z.B.Z.Z.v i.=.` # & @.u.u.u.u.u.u.u.",
"u.u.u.%.%.%.%.) # % # O e a d d f f n.n.n.n.n.n.n.n.n.n.n.n.n.f n.n.n.m.j z S ] = ] @.u.u.u.u.u.u.u.",
"u.u.u.%.%.%.%.) & $ $ . w y y y y y C C C C C C C C C C C C C A A K K K K K 1.O.@.@.$.u.u.u.u.u.>.,.",
"u.u.u.=.%.%.%.[ ] ] ) ( _ [ ] ^ ] { %.%.%.%.%.*.*.%.%.%.%.%.=.-.-.;.p.u.u.u.u.u.u.u.u.u.p.u.u.-.-.-.",
"u.u.s._.:._ ] ] ) ( ( ( ! d.d.( ' %.%.%.%.%.%.k.c.X.' %.%.*.-.;.;.f.`.p.=.u.u.p.p.p.u.u.(.z.=.-.-.-.",
"u.u.p.g.+.& ] ] ) ( ( ( ] u.=.% X.%.%.%.%.%.%.:.p._ ' *.=.;.u.u.u.d.z.$.O.u.u.u.u.;.;.;.f.=.` o.O.@.",
"u.p.=._ % $ ) ( ( ( ( ) ] _ ( $ ' %.%.%.*.%.%.o.! % ..-.u.u.u.u.u.;.=.) / u.u.u.u.-.-.-._ % $ ^ ] ] ",
"u.u.w.[ ] & ( ( ( ( ) ] %.%.X.{ %.%.%.*.-.-.;.$.;.$.;.u.u.u.u.u.u.u.u.$.$.u.;.-.>.-.-.-.[ ] ^ , ] ] ",
"u.u.w.[ ^ ] ( ( ( ( ) [ %.%.%.%.%.%.%.-.-.>.:.u.u.u.u.u.u.u.u.u.u.u.u.u.u.u.;.-.-.-.-.-.` ] [ ^ ] ^ ",
"u.u.w.[ ^ ] ( ( ( ( Q ] %.%.%.%.%.%.%.>.-.>.u.u.u.u.u.u.p.u.u.u.u.u.u.u.u.u.;.-.-.-.-.-.[ ] ] ] ] ] "
};
