/* XPM */
static char *_f6b684d20bc4cd1e8df2c864ba8222fz30Ec5Np5Hj6WlRD[] = {
/* columns rows colors chars-per-pixel */
"32 32 166 2 ",
"   c None",
".  c #213900",
"X  c #214200",
"o  c #081000",
"O  c #294A00",
"+  c #396B00",
"@  c #182900",
"#  c #102100",
"$  c #080000",
"%  c #001800",
"&  c #100800",
"*  c #210808",
"=  c #000800",
"-  c #DE1808",
";  c #BD1008",
":  c #9C0008",
">  c #840008",
",  c #841000",
"<  c #6B1000",
"1  c #CE1808",
"2  c #A51008",
"3  c #420000",
"4  c #210000",
"5  c #100000",
"6  c #000008",
"7  c #C60808",
"8  c #D61018",
"9  c #D60808",
"0  c #FF0810",
"q  c #FF1818",
"w  c #FF2110",
"e  c #FF4218",
"r  c #FF3918",
"t  c #F70810",
"y  c #E70010",
"u  c #F73908",
"i  c #FF1010",
"p  c #FF2918",
"a  c #FF4221",
"s  c #FF6B29",
"d  c #FF5218",
"f  c #FF4208",
"g  c #F72108",
"h  c #E71008",
"j  c #6B0008",
"k  c #310000",
"l  c #FF3908",
"z  c #FF4A08",
"x  c #FF5210",
"c  c #FF9418",
"v  c #FF7B18",
"b  c #FF8C31",
"n  c #FF3108",
"m  c #F71010",
"M  c #AD0008",
"N  c #FF5208",
"B  c #DE3908",
"V  c #FF7310",
"C  c #FF8C29",
"Z  c #FFBD29",
"A  c #FF6318",
"S  c #FF6310",
"D  c #BD0008",
"F  c #FF7B08",
"G  c #F75208",
"H  c #FF8C10",
"J  c #FF9C08",
"K  c #FFAD18",
"L  c #FFC621",
"P  c #FFAD21",
"I  c #6B0000",
"U  c #FF6B08",
"Y  c #FF8C08",
"T  c #FFBD10",
"R  c #FFAD08",
"E  c #FFA508",
"W  c #FFD618",
"Q  c #FFBD18",
"!  c #520000",
"~  c #FFCE10",
"^  c #FF7308",
"/  c #AD2908",
"(  c #FF9400",
")  c #FFDE29",
"_  c #D66300",
"`  c #F76B00",
"'  c #D65200",
"]  c #BD3900",
"[  c #9C3900",
"{  c #6B2900",
"}  c #421000",
"|  c DarkOrange",
" . c #FFBD08",
".. c #FFE739",
"X. c #FF7300",
"o. c #AD5200",
"O. c #843900",
"+. c #422100",
"@. c #BD6300",
"#. c #F78C00",
"$. c #FFFF31",
"%. c #FFF718",
"&. c #FFD608",
"*. c #FFCE08",
"=. c #E77300",
"-. c #AD6300",
";. c #8C5200",
":. c #311800",
">. c orange",
",. c #FFE708",
"<. c #FFB500",
"1. c #C67300",
"2. c #9C6B00",
"3. c #7B5200",
"4. c #422900",
"5. c #211800",
"6. c #E78C00",
"7. c #FFBD00",
"8. c #C67B00",
"9. c #6B3900",
"0. c #312900",
"q. c #523900",
"w. c #D68C00",
"e. c #EFA500",
"r. c #FFC600",
"t. c #AD7300",
"y. c #8C6300",
"u. c #735200",
"i. c #AD7B00",
"p. c #CE9C00",
"a. c #F7B500",
"s. c #FFCE00",
"d. c #6B4A00",
"f. c #7B6300",
"g. c #B59400",
"h. c #E7B500",
"j. c #FFD600",
"k. c #4A3900",
"l. c #8C7300",
"z. c #9C7B00",
"x. c #6B5200",
"c. c #101000",
"v. c #4A5200",
"b. c #A58C00",
"n. c #B59C00",
"m. c #CEB500",
"M. c #CEA500",
"N. c #395200",
"B. c #737300",
"V. c #B5AD00",
"C. c #F7C600",
"Z. c #525200",
"A. c #526300",
"S. c #738C00",
"D. c #6B6300",
"F. c #212900",
"G. c #4A7B00",
"H. c #8C9400",
"J. c #393900",
"K. c #101800",
"L. c #215200",
"P. c #293900",
"I. c #427300",
"U. c #315200",
"Y. c #103100",
"T. c white",
/* pixels */
"                                                                ",
"          . . . X o o o                                         ",
"      O + X @ @ @ @ @ o o o o o                                 ",
"    # o                 o o o o o o $     % # % # o             ",
"                                $ & * = % % % % # . @ =         ",
"                      - - ; : > , < 1 2 , 3 4 5 6 6 6 = % =     ",
"                - 7 7 7 8 9 0 0 q w e r w 7 > > 3 4       o     ",
"            t y u i i i w w p r a s s d e f g h : j k 5         ",
"          t t l z z z z x d c v b b b v d f n m y M > 3 5       ",
"        i n z N x B V V v C c Z b b C v A S z n w y D : j 4 $   ",
"      n z F G V V H J K K K L L P Z c c v S B z l g 9 D : I k   ",
"    - G U Y H T T R E W Q W L L L L K K H V S N x l - 1 : I ! 5 ",
"    N Y Y J E R T ~ Q Q ~ L L Q Q Q K R T H H ^ U N z 1 / , < 4 ",
"  - F Y ( J E T T Q ~ W ) W W L Q K R E E E ( Y F _ ` ' ] [ { } ",
"  _ | J  .E R R T Q W L Z ....) ) W T T T  .E E Y ^ X._ o.O.{ +.",
"  @.#.E R ( E R T Q L ....$...$.%.W &.~ *. .R E ( | =._ -.;.{ :.",
"  -.#.>.R R R R T Q W %.W $.L W %.,.&.*.*. . .<.>.#.1.1.2.3.4.5.",
"  -.6.>. . . .*.&.&.&.,.W W %.,.,.,.&.*.*.7.<.<.>.6.8.-.;.9.0.& ",
"  q.w.e.<.7.r.*.*.*.&.&.T &.,.,.,.*.*.*.r.7.<.>.6.8.t.y.u.q.5.= ",
"    i.p.a.r.r.s.s.*.*.*.&.&.&.&.*.*.r.7.<.<.e.p.w.i.2.y.d.4.5.  ",
"    f.g.h.r.s.s.s.j.j.s.r.s.s.<.<.>.7.7.<.e.w.p.g.i.y.d.k.0.=   ",
"    q.l.g.h.r.j.s.j.j.j.j.s.j.s.r.r.7.a.e.p.p.i.z.u.x.q.0.c.    ",
"      v.b.n.m.m.h.j.j.s.s.s.s.r.a.h.M.M.g.g.z.y.u.x.k.0.c.      ",
"      k.N.B.b.V.V.V.m.m.h.C.h.h.m.M.n.b.z.l.f.x.Z.0.5.c.6       ",
"        O A.S.S.V.V.V.m.m.m.m.V.g.g.l.D.D.Z.k.0.F.# = 6         ",
"          X + G.S.S.H.H.S.H.H.S.B.Z.A.v.N.J.F.# K.= 6           ",
"            F.L.+ G.+ G.G.G.N.N.v.X P.F.F.@ # K.o 6             ",
"              F.. X X O v.+ I.I.A.N.U.O X Y.# K.6               ",
"                F.@ F.X N.+ + I.+ O O Y.# K.o                   ",
"                    F.F.F.. O . . # # o =                       ",
"                          q.k.5.& = =                           ",
"                                                                "
};
