/* XPM */
static char *b6889683fb6248e8a27c698247dd613cupJ9fQZpZdZ6EAH1[] = {
/* columns rows colors chars-per-pixel */
"32 32 137 2 ",
"   c #772200",
".  c #7C2200",
"X  c #8C1A00",
"o  c #9E1600",
"O  c #941B00",
"+  c #9B1900",
"@  c #A41400",
"#  c #AB1400",
"$  c #A41900",
"%  c #AC1B00",
"&  c #B71500",
"*  c #B31B00",
"=  c #BA1B00",
"-  c #822400",
";  c #8B2500",
":  c #8B2A00",
">  c #942500",
",  c #9C2500",
"<  c #932D00",
"1  c #9D2E00",
"2  c #963100",
"3  c #9B3300",
"4  c #A52600",
"5  c #AE2200",
"6  c #A32B00",
"7  c #B62400",
"8  c #B72B00",
"9  c #A43300",
"0  c #AC3500",
"q  c #A73C00",
"w  c #AC3B00",
"e  c #B13100",
"r  c #B23D00",
"t  c #B83D00",
"y  c #C21B00",
"u  c #CB1E00",
"i  c #FF0C00",
"p  c #E21800",
"a  c #F11700",
"s  c #FA1500",
"d  c #C52100",
"f  c #CC2100",
"g  c #C12D00",
"h  c #CB2D00",
"j  c #D32500",
"k  c #D52A00",
"l  c #CE3700",
"z  c #C63900",
"x  c #CD3B00",
"c  c #D43300",
"v  c #DA3600",
"b  c #D63A00",
"n  c #EF2C00",
"m  c #F32E00",
"M  c #E53300",
"N  c #F53300",
"B  c #FC3500",
"V  c #F13800",
"C  c #FF3800",
"Z  c #B64000",
"A  c #BA4300",
"S  c #C04700",
"D  c #CE4600",
"F  c #C44900",
"G  c #CC4C00",
"H  c #DD4500",
"J  c #D14F00",
"K  c #D94B00",
"L  c #C55600",
"P  c #CC5400",
"I  c #CD5900",
"U  c #D45400",
"Y  c #DC5500",
"T  c #D65E00",
"R  c #DC5B00",
"E  c #EC4700",
"W  c #E34C00",
"Q  c #EB4A00",
"!  c #F34100",
"~  c #F34C00",
"^  c #FC4900",
"/  c #E25700",
"(  c #ED5600",
")  c #E15C00",
"_  c #F35300",
"`  c #FA5500",
"'  c #F75A00",
"]  c #FF5800",
"[  c #DD6500",
"{  c #DD6D00",
"}  c #DD7000",
"|  c #E36300",
" . c #EC6500",
".. c #E16800",
"X. c #EC6C00",
"o. c #F56400",
"O. c #FB6100",
"+. c #F36E00",
"@. c #FA6D00",
"#. c #E47100",
"$. c #F47C00",
"%. c #E18100",
"&. c #ED8200",
"*. c #E88C00",
"=. c #EA9000",
"-. c #E09C00",
";. c #E99E00",
":. c #F59E00",
">. c #EAA400",
",. c #EEAD00",
"<. c #FAA400",
"1. c #F5A900",
"2. c #FBB000",
"3. c #F7B800",
"4. c #CECE00",
"5. c #D1C700",
"6. c #D7D700",
"7. c #DBDB00",
"8. c #DCDC00",
"9. c #E3CE00",
"0. c #EED800",
"q. c #EEDC00",
"w. c #F1D800",
"e. c #F0DC00",
"r. c #E0E000",
"t. c #E4E400",
"y. c #EEE100",
"u. c #EEE300",
"i. c #EBEB00",
"p. c #EEEE00",
"a. c #F6E000",
"s. c #FCE200",
"d. c #FDEA00",
"f. c #F0F000",
"g. c #F7F700",
"h. c #FAFA00",
"j. c yellow",
/* pixels */
"0 0 0 0 A A A A A A A A A A A 0 0 0 0 0 0 0 0 0 r A A A )  . . .",
"0 0 0 0 A A A A A A A A A A A 0 0 0 0 0 0 0 0 0 t A A A R |  . .",
"A A 9 3 A t 0 0 0 0 0 0 0 0 0 A A A A A A A A A A A r 0 3 ; |  .",
"F F q 3 Z Z r w w w w w w w w w w 1 1 1 1 1 1 1 1 9 r Z 9 2 |  .",
" . . .R r t 0 : . . . . X X + + + O + X X       : 0 t 0 R .. . .",
" . . .U F Y Y F < - O o f K ` ] ] Y _ K d + O < F R Y t R |  . .",
"|  . .U t Y  . .L , d Y =.y.g.i.i.r.r.q.*.K f x | | R w R /  . .",
"[ [  .P < P | | Q M &.e.p.p.p.8.8.8.8.p.p.w.$.N Q ) S 1 R /  . .",
"[ [ | U ; q P [ n @.a.f.r.8.8.p.p.g.g.g.g.h.s.O.N F 3 3 R /  . .",
"R R ..Y ; < w b N ;.8.i.r.-.I [ [ ..#.3.j.h.g.:.N 7 1 w ) /  . .",
"Y Y ..Y ; 1 9 y X.e.p.g.h.H $ o o o % ~ 8.7.r.0./ # 1 0 T [  . .",
"Y Y ..U - < 3 * %.h.j.j.1.a 1 < < 3 D B f.f.f.p.} @ ; > I [  . .",
"Y R ..U . ; $ k >.f.r.6.! c G 3 3 U ( i C V c M p @ < < I [  . .",
"Y Y ..U . ; % I 5.r.i.f.B z | ) 0 S / ( D O O O O ; < 3 R [ [ ..",
"[ [ ..U   . & +.i.p.p.p.B z  . .| 0 S G < 2 2 2 2 2 3 3 R ..[ [ ",
"[ [  .L . : % } p.7.4.4.h 6 U [  .| 9 ; ; ; ; ; ; ; < 3 R ..[ [ ",
"[ [  .L . : % { p.p.p.p.c 6 | Y [  .) 3 3 3 3 3 3 3 3 3 I [ [ [ ",
"[ .. .P ; 3 u  .4.4.r.p.B z A  .Y  ./ R 0 w A A A A A A U [ [ [ ",
" . .[ G ; 3 u o.y.p.f.h.C z Y t ) .. .W W 8 8 8 8 e t A U Y [ [ ",
" . .[ G ; 3 5 k >.p.g.j.^ c U ; 3 ) _ i B B m m s k A Z U Y [ [ ",
" . .[ G ; 3 0 = %.f.f.j.1.a > 3 0 r W B g.f.7.7. .k r w U Y [ [ ",
" . .[ G ; 3 9 y X.d.j.j.h.H 5 7 d g h ` h.h.h.a.' j A A T R R [ ",
" . ...G ; 3 w v N 2.j.h.f.,.[ [ o.[ { ,.f.g.h.<.N h r A T R Y Y ",
" . . .P - 9 J | N @.a.t.8.8.8.8.p.p.8.8.t.h.s.O.N Y 0 9 U Y Y Y ",
" . .| L : S |  .Q m $.9.8.8.8.8.p.p.8.8.r.w.$.m Q  .P 3 G R Y Y ",
" . .[ T r Y |  .S 5 f Y =.y.8.7.7.p.p.q.*.K f l | | | U Y [ Y Y ",
" . ...) F Y Y S : : 4 5 f K E E E Y _ K f o O 3 U | R | R [ R Y ",
" . ...) A F r : : 2 3 3 4 4 % % % o $ + O ; < < 1 P | R Y R Y Y ",
" . .S A U U G G G G G A Z Z r r r r t G G S Z r r A F S t 0 S S ",
" . .0 1 S S S S S J Y Y Y Y Y Y U A A S S A F Y G A A A 9 - Z A ",
" . .Y T Y Y Y Y Y Y Y Y Y Y Y Y Y Y Y Y Y Y Y G A A A A A Z A A ",
" . .R [ Y Y Y Y Y Y Y Y Y Y Y Y Y Y Y Y Y Y Y G A A A A A A A A "
};
