/* XPM */
static char *f16bd4a6cd704f2dfffeb18f03fa180f6OU0GC7xOnDCsmCY[] = {
/* columns rows colors chars-per-pixel */
"32 32 7 1 ",
"  c #065E01",
". c #085D01",
"X c #066C01",
"o c #007703",
"O c #007605",
"+ c #018305",
"@ c #008405",
/* pixels */
"  OO  XXOO  OOXXXX  OOOO    OOOO",
"  OO  XXOO  OOXXXX  OOOO    OOOO",
"OOOO@@OOOOXXOO  XX@@OO  OOXX  OO",
"OOOO@@OOOOXXOO  XX@@OO  OOXX  OO",
"OO  OOXX    @@  XX  XX  OOXX@@XX",
"OO  OOXX    @@  XX  XX  OOXX@@XX",
"XX@@XX  XXXXOOXX+@XXXX@@@@ .@@@@",
"XX@@XX  XXXXOOXX@@XXXX@@@@  @@@@",
"    OOXXOO    XXXX    XXOOXXOO  ",
"    OOXXOO    XXXX    XXOOXXOO  ",
"@@@@  XX@@@@XX@@  @@XX@@OO  @@  ",
"@@@@  XX@@@@XX@@  @@XX@@OO  @@  ",
"OOXXXX  OO  XX  XX  XXXX  @@  @@",
"OOXXXX  OO  XX  XX  XXXX  @@  @@",
"@@  XX@@@@XX@@  XX@@  XXXXOO@@  ",
"@@  XX@@@@XX@@  XX@@  XXXXOO@@  ",
"XXXXOOXXXXOOOOXX@@OOXX  @@  OO  ",
"XXXXOOXXXXOOOOXX@@OOXX  @@  OO  ",
"@@@@XX@@XX  XX  XXXX@@oOOO@@XXOO",
"@@@@XX@@XX  XX  XXXX@@OOOO@@XXOO",
"  XXXXOOXX  OO@@@@  OO  OOXXOO  ",
"  XXXXOOXX  OO@@@@  OO  OOXXOO  ",
"@@  OO  @@@@OOXX  XXXX    OO    ",
"@@  OO  @@@@OOXX  XXXX    OO    ",
"OO  OO  OOOO  XX  OO  XX  XXOOXX",
"OO  OO  OOOO  XX  OO  XX  XXOOXX",
"@@@@XXOOXXXXOO  OOXX    OOXXXX  ",
"@@@@XXOOXXXXOO  OOXX    OOXXXX  ",
"@@OO  @@XX  OO@@XXOO@@@@OOOO  OO",
"@@OO  @@XX  OO@@XXOO@@@@OOOO  OO",
"  OO  OOXXOO  @@  OOXX@@XX@@XXOO",
"  OO  OOXXOO  @@  OOXX@@XX@@XXOO"
};
