/* XPM */
static char *b7f10db3eaf54b1992b39730092210916SgxuvpuwUwxfGT9[] = {
/* columns rows colors chars-per-pixel */
"32 32 126 2 ",
"   c #270600",
".  c #290800",
"X  c #330300",
"o  c #3C0300",
"O  c #3A0800",
"+  c #331400",
"@  c #440000",
"#  c #4C0000",
"$  c #550300",
"%  c #5C0400",
"&  c #5A0900",
"*  c #640200",
"=  c #6D0000",
"-  c #650900",
";  c #680C00",
":  c #740000",
">  c #7C0000",
",  c #7F0800",
"<  c #522900",
"1  c #5C3400",
"2  c #543C00",
"3  c #5F3C00",
"4  c #5D4500",
"5  c #694600",
"6  c #604800",
"7  c #675300",
"8  c #695500",
"9  c #725F00",
"0  c #746100",
"q  c #796500",
"w  c #7C6900",
"e  c #840000",
"r  c #8C0100",
"t  c #850A00",
"y  c #880C00",
"u  c #930100",
"i  c #9A0100",
"p  c #9D0B00",
"a  c #A40300",
"s  c #AC0000",
"d  c #A30B00",
"f  c #A90D00",
"g  c #B30100",
"h  c #BB0000",
"j  c #B40D00",
"k  c #BC0B00",
"l  c #A51400",
"z  c #BF1900",
"x  c #C30400",
"c  c #C80700",
"v  c #C40D00",
"b  c #CC0D00",
"n  c #D60D00",
"m  c #D90F00",
"M  c #C61100",
"N  c #CD1400",
"B  c #C31B00",
"V  c #CF1B00",
"C  c #D31200",
"Z  c #DD1100",
"A  c #D31B00",
"S  c #DA1A00",
"D  c #E11500",
"F  c #E41C00",
"G  c #EA1E00",
"H  c #ED2100",
"J  c #9E5800",
"K  c #A45300",
"L  c #AE5400",
"P  c #A85800",
"I  c #827000",
"U  c #A76100",
"Y  c #AC6000",
"T  c #B36100",
"R  c #B86000",
"E  c #B96800",
"W  c #BE7000",
"Q  c #C85600",
"!  c #C36100",
"~  c #CA6A00",
"^  c #D56400",
"/  c #DB6200",
"(  c #D06C00",
")  c #C77000",
"_  c #D37000",
"`  c #DC7600",
"'  c #D17A00",
"]  c #DD7A00",
"[  c #E56C00",
"{  c #E86F00",
"}  c #EB7200",
"|  c #E67A00",
" . c #EA7E00",
".. c #F07600",
"X. c #F47B00",
"o. c #9E8F00",
"O. c #9C9300",
"+. c #A28F00",
"@. c #A89E00",
"#. c #AAA300",
"$. c #B5AB00",
"%. c #BCB200",
"&. c #E58000",
"*. c #ED8200",
"=. c #F28500",
"-. c #F68A00",
";. c #C1B700",
":. c #C3BB00",
">. c #C7C400",
",. c #CEC600",
"<. c #CDCD00",
"1. c #D2D200",
"2. c #D4D400",
"3. c #DBDB00",
"4. c #DEDE00",
"5. c #E2E200",
"6. c #E5E500",
"7. c #E9E600",
"8. c #E9E900",
"9. c #EDEB00",
"0. c #EEEE00",
"q. c #F1F100",
"w. c #F4F300",
"e. c #F4F400",
"r. c #F8F800",
"t. c yellow",
/* pixels */
"h h h h h h h h h h h h h h h h h h h g s s s s g h h h F H H H ",
"h h h h h h h h h h h h h h h h h h h h s s s s g h h h S F H H ",
"h h a i h h h h g s s g h h h h h h h h h h h h h h g s i r F H ",
"x x a i h h g s s s s s s s s s s s s s s i a s s g h h a u F H ",
"H H H S g x g r > > > > > : : : > > > > : > > > r g x g F D H H ",
"H H G n x Z Z v u e e e > > > > r r r e > e e u v Z Z x F D H H ",
"X.X.X.[ Q / { } ! U J K K K K K K K K P T T E ( } } [ ^ } } X.X.",
"t.t.t.e.<.1.6.0.0.0.5.1.<.<.<.<.<.<.<.5.q.r.t.t.t.r.q.0.r.t.t.t.",
"*.*.*.&.Y T ~ | |  .*.~ ! ! ! ! ! ! ! _ ` =.=.*.=.' W ) *.*.-.-.",
"Z Z D S r u s C D D G C g h h h h h h x S G F D N p i s F D H H ",
"Z Z D A * @ # % - - - t % $ > h e $ $ * y ; - - $ # # : N Z H H ",
"Z Z D B < O.O.@.$.%.;.1 +.q O > O $.;.+.1 ;.%.$.@.O.O.< j Z H H ",
"Z Z D B 4 0.6.4.1.6.r.6 ,.>.q X . t.t.,.6 q.2.5.8.0.e.4 j Z H H ",
"Z Z D B 2 1.5.r.e.r.e.4 ,.r.9.w . q.q.:.2 1.<.<.1.1.2.2 z Z Z D ",
"Z Z D V $ + 0 1.1.0 +   ,.t.t.w.I t.t.,.  + 9 <.<.9 + $ V D Z Z ",
"Z Z G v > * 0 e.t.q = @ #.8.t.t.r.t.e.#.o * 0 0.3.7 = u S D Z Z ",
"Z Z G v > * 7 <.<.7 * o :.t.q.8.0.q.t.:.@ : 7 <.<.7 : i b Z Z Z ",
"Z D G b r : 8 <.<.8 e # ,.t.t.I w.t.r.>.# e 8 <.1.8 e h n Z Z Z ",
"H H Z b r : 9 8.8.9 r # :.q.t.. w 8.2.#.# e 9 8.q.q e h n Z Z Z ",
"H H Z b r : 7 <.<.7 l & ,.t.t.. X w 7.,.$ p 8 1.<.7 e h n Z Z Z ",
"H H Z b r : 3 O.O.3 d * +.;.$.O > O q o.$ d 5 $.@.3 r h n Z Z Z ",
"H H Z b r r * % - , v f $ # $ e h > $ $ t M , ; % = s h n Z Z Z ",
"H H D b r i s C F D F N i i s h h h h h Z G D G S h h h n Z Z Z ",
"-.-.-.] Y T ~  . . .*.E Y R ! ! ! ! ! _ ] =.*.=.-.] _ _  .*.*.*.",
"t.t.t.e.<.1.6.0.0.0.5.1.<.<.<.<.<.<.<.5.q.r.t.t.t.r.q.0.r.t.t.t.",
"X.X.} } Q / { } ! Y P K K K K K L L L L T T E _ ..} [ } } } } } ",
"H H D F x Z Z v r r u u u u u u i i i i u u u a C D Z D Z Z Z Z ",
"H H D F h x g r r u i i i i r r r r r r r u i u i N D Z Z Z Z Z ",
"H G x k n n b b b b b h g g g g g g g b b v g g g h x x h s x x ",
"H G s i x x x x x n Z m m m m m n h h x x h x m c h h h a e g h ",
"H H m n m m m m m Z Z Z Z Z Z Z Z m m m m m Z b h h h h h g h h ",
"H H Z Z Z Z Z Z Z Z Z Z Z Z Z Z Z Z Z Z Z Z Z b h h h h h h h h "
};
