/* XPM */
static char *_b78d5814254462fc32278d36e5f64fbBEeQ5YJCQc3MO2zP[] = {
/* columns rows colors chars-per-pixel */
"32 32 146 2 ",
"   c #2D142C",
".  c #371926",
"X  c #32172C",
"o  c #321D2F",
"O  c #231436",
"+  c #251639",
"@  c #26193B",
"#  c #2B1D3E",
"$  c #331E32",
"%  c #391E31",
"&  c #3B222F",
"*  c #322235",
"=  c #3C2232",
"-  c #382538",
";  c #38293D",
":  c #4B1A0E",
">  c #561700",
",  c #5A1900",
"<  c #541D10",
"1  c #621E00",
"2  c #642207",
"3  c #6C2301",
"4  c #63230C",
"5  c #67280E",
"6  c #752301",
"7  c #7A2400",
"8  c #772800",
"9  c #782800",
"0  c #702709",
"q  c #70290D",
"w  c #642510",
"e  c #752911",
"r  c #442533",
"t  c #432A37",
"y  c #482835",
"u  c #452D3C",
"i  c #4B2A3D",
"p  c #4D313F",
"a  c #503037",
"s  c #5B3135",
"d  c #57303B",
"f  c #58323B",
"g  c #261D41",
"h  c #2E1E45",
"j  c #242244",
"k  c #2B2244",
"l  c #262649",
"z  c #2D2549",
"x  c #2D2A4C",
"c  c #322244",
"v  c #332945",
"b  c #382943",
"n  c #33254B",
"m  c #332B4C",
"M  c #392949",
"N  c #2C2551",
"B  c #2D2A54",
"V  c #332E52",
"C  c #3E2C52",
"Z  c #362958",
"A  c #3B2B5A",
"S  c #333355",
"D  c #383057",
"F  c #33335D",
"G  c #3B335D",
"H  c #312F60",
"J  c #343365",
"K  c #3C3365",
"L  c #3E3A67",
"P  c #38366B",
"I  c #442E43",
"U  c #442C49",
"Y  c #4C2E49",
"T  c #522E49",
"R  c #473344",
"E  c #4B3344",
"W  c #423348",
"Q  c #4D334D",
"!  c #533344",
"~  c #5C3346",
"^  c #53334C",
"/  c #5C344B",
"(  c #59384B",
")  c #482E54",
"_  c #533354",
"`  c #663844",
"'  c #693847",
"]  c #663848",
"[  c #402F60",
"{  c #433366",
"}  c #413A66",
"|  c #463669",
" . c #48376A",
".. c #443C6D",
"X. c #4B3A6D",
"o. c #413D74",
"O. c #4D3D71",
"+. c #503F72",
"@. c #484172",
"#. c #4E4378",
"$. c #544376",
"%. c #55447A",
"&. c #812700",
"*. c #842900",
"=. c #8C2D00",
"-. c #832E0D",
";. c #902F00",
":. c #8B330E",
">. c #953201",
",. c #9A3300",
"<. c #9F3300",
"1. c #9B3706",
"2. c #93330A",
"3. c #92330F",
"4. c #91350F",
"5. c #9E350D",
"6. c #993A0F",
"7. c #9F3A0D",
"8. c #8B3310",
"9. c #8D3311",
"0. c #9C3810",
"q. c #A13300",
"w. c #A03500",
"e. c #A83300",
"r. c #AC3500",
"t. c #A23800",
"y. c #A33800",
"u. c #AE3900",
"i. c #AB3C00",
"p. c #AD3C00",
"a. c #A43909",
"s. c #A83D0A",
"d. c #B23B00",
"f. c #B33C00",
"g. c #B53E00",
"h. c #A94009",
"j. c #AC410D",
"k. c #B34307",
"l. c #BA4300",
"z. c #BB4400",
"x. c #534780",
"c. c #574A85",
"v. c #594885",
"b. c #5A4C8A",
"n. c #5B4D8A",
"m. c #635396",
/* pixels */
"$.$.$.$.$.O.{ X.X.O.$. .$.| { J S S S V k j k m S F K { { { { { ",
"$.$.%.$.$.O.{ X.O.O.$. .+.| { P S S S V k l z m S J K { | { { { ",
"$.%.c.V { { { { %...G { { J J b.j S V k j F ..x F J K { v.D { { ",
"$.$.V h { { { { G z A J J J S l @ V c j k z j z J K { { G h { { ",
"$.$.{ { { A A C U U M M b ; ; ; u % = $ r u u I C A A { { { { { ",
"$.$.{ K Z # n o : > > > > > > > 3 > 3 > 3 3 3 w i z O A { K K K ",
"O.X.K J B n } x u e *.*.*.*.*.*.*.*.*.*.*.*.e i ..G @ Z K J J F ",
"{ { F F v $ V x J ~ 8.<.q.q.q.q.q.,.,.,.q.:.d m l j . M F F S S ",
"X.O.@.x - < ~ J { { ~ 3.e.d.f.f.f.i.i.p.7.f S n k & 4 u @.V x x ",
"$.$.K @ - 1 8.~ { { K ^ 3.u.d.d.d.z.z.h.s S S S r q 7 y K g x x ",
"$.$.x x b 1 <.0.' K J J Q 2.e.g.g.l.a.f c m S u q >.*.= x x F J ",
" .| J J M 1 ,.w.4.~ J J J Q 2.t.t.1.p l k c r q >.=.7 r V F J J ",
"{ { { { U > 7 7 7 -.~ J K { _ >.>.^ l j j = 0 >.,.>.&.u F J K { ",
"$.$.{ J M , >.>.>.>.2.^ { { { _ X l j j * 2 7 7 7 7 7 U K { { { ",
"| { J S ; > 7 7 7 7 =.2._ { { J H O j * 3 >.>.>.>.>.&.T { { J J ",
"{ | b.j % 1 ,.,.,.,.,.,.>._ J m.S V   3 6 7 7 7 7 7 6 T b.B J J ",
"{ { j @ u 8 ,.,.=.7 7 7 6   [ S O S W >.,.,.,.,.,.,.*.U l O S S ",
"$.$.S F M 1 q.d.z.z.z.k.( + O [ S S S R 2.u.l.l.l.l.=.u S S S S ",
"{ { J J U 6 <.u.l.l.j./ l O O   _ S S S E 2.e.r.u.u.=.u S c j j ",
"{ { K { U 1 ,.t.u.5.~ m k j X 3 >._ F F J ^ 3.u.l.z.=.r c c n n ",
" . .{ { Y 9 q.d.j.] F m c * 3 ,.<.a./ J J K ~ 3.u.l.=.= n S S S ",
"$.$.O.K Y 9 <.0.` K F S r 0 >.<.e.g.s.( K { { ~ 9.u.=.y } S S S ",
"$.$...m Y 9 :.d D F J I q >.<.d.d.d.f.j.] { { K ! 9.*.u ..k F F ",
"$.$.B N U 5 a z m S I 4 ;.,.q.i.i.i.i.i.6.~ { K J ! q I B n K K ",
"$.$.J F M t } l z t 4 *.>.,.,.*.*.*.*.*.=.8.~ K o.L y C K { { { ",
"X. .F S x z G j & 4 6 =.,.,.,.=.=.=.=.=.=.,.8.~ ..V c A { { { { ",
"{ { S S x O @ . 4 6 6 7 *.*.*.*.*.*.*.*.*.*.*.e y c c A { { { { ",
"{ { S S m # # # = r r t u u u u u u u I U Y T T ) A A { { { K K ",
"{ | x.l c k j k { G x S S S S b.l S S J { O.#.G { { { { v.K J J ",
"{ { x + k j j k n g x S S S S B O J { { { { V n { { K J B @ n n ",
"{ { c k j j k m S S S S J J { { { { { { { { { { K J J J n c c c ",
"{ { c k j j k m S S S S J J { { { { { { { { { { K J J J n c c c "
};
